<mxfile host="app.diagrams.net" modified="2021-12-30T09:32:00.360Z" agent="5.0 (X11)" etag="RTkosYpG7nHduYssbOtz" version="15.8.2" type="github" pages="3">
  <diagram id="0mREzUaX1PDFUfKEWEyC" name="Image Build">
    <mxGraphModel dx="888" dy="372" grid="1" gridSize="10" guides="1" tooltips="1" connect="1" arrows="1" fold="1" page="1" pageScale="1" pageWidth="850" pageHeight="1100" math="0" shadow="0">
      <root>
        <mxCell id="0" />
        <mxCell id="1" parent="0" />
        <mxCell id="IX9gkPBXZUI1Ajs194D2-2" value="Image Build" style="shape=umlFrame;whiteSpace=wrap;html=1;width=130;height=20;" parent="1" vertex="1">
          <mxGeometry x="26" y="40" width="570" height="250" as="geometry" />
        </mxCell>
        <mxCell id="IX9gkPBXZUI1Ajs194D2-3" value="" style="group;fillColor=#d5e8d4;strokeColor=#82b366;" parent="1" vertex="1" connectable="0">
          <mxGeometry x="36" y="90" width="120" height="50" as="geometry" />
        </mxCell>
        <mxCell id="IX9gkPBXZUI1Ajs194D2-4" value="&lt;div&gt;&amp;nbsp;&amp;nbsp;&amp;nbsp;&amp;nbsp;&amp;nbsp;&amp;nbsp;&amp;nbsp;&amp;nbsp;&amp;nbsp;&amp;nbsp;&amp;nbsp;&amp;nbsp;&amp;nbsp; Buildah&lt;/div&gt;" style="html=1;fillColor=#dae8fc;strokeColor=#6c8ebf;" parent="IX9gkPBXZUI1Ajs194D2-3" vertex="1">
          <mxGeometry width="120" height="50" as="geometry" />
        </mxCell>
        <mxCell id="IX9gkPBXZUI1Ajs194D2-5" value="" style="shape=image;verticalLabelPosition=bottom;labelBackgroundColor=#ffffff;verticalAlign=top;aspect=fixed;imageAspect=0;image=data:image/png,iVBORw0KGgoAAAANSUhEUgAAAQMAAADCCAMAAAB6zFdcAAABNVBMVEX///8AAAD944WAgIDMzMz8xwCEhIT95In/yAD/0gD8/Pz8xQD82l35+fn822BLS0vU1NQnJyd7e3tZWVk6OjpUVFT09PREREQSEhIeHh4wMDDe3t53e4TCwsL8yRZ8foLn5+dwcHBjY2OTk5P80UHi4uK5ubmhoaFtbW3922cZGRn/zgBHR0ezs7P8zzWNjY2oqKj93nP8zCr91VH94Xz/++3+6rb+9NX/64qxnGCPiXbWs0n+78r/+OOCgXz/667/8MKgkmnhtADJoQC6olWyjgAaFQBuWAD945ubmZKGagB4cFJ6b0WGeEe6p2FSSi0WDgB2YiXvvg1hTABESlfCmgDJqk3fuDiYjnG2saOcgSpYSiJCMgCllWjQrkjpvi1eY29ST0M2PUooIABOPgClgQBXXGc3a50oAAARQElEQVR4nO1dCXsaRxKlgRlucYhjuIZTXCMhMSDLUnTZTjbebDbZ1Xol53DkHJv//xO2qrvngmmstZSlceZ9nxEMMwP9uqr6VXU3DpVDf3YEDAQIECBAgAABAgQIECBAgAABAgQIECBAgAABAgQIECBAgAABAgQIsE2o79ooeZBl2K8wFBlqDPl8vtje9Fd/KpTJRyO/6e/+VMj6tU5jqDLkObgJcIOoEtLd9Jd/GkSgO8uZZSQ98L8SDaj3//2yfwwOoCHtj7y2Dtc2n/C7bAiPa8ZjCJQGGe1x5lz4BOJiiZDdR91gf+vj4iEhVUHAs3C8/v3yIw1p4xiAO+8J302ePIuNzVRKH8eenQiZ2PK4uAdff+D/1nF4bCopBaDr+JhKmeOY/6lbHReToHEOBe8dY+vNfnq8CIcX43nfBCZ0wbkqxMUPOJS02CWkJHzTVGbhWCwWpsAnY2UqOjf72MC6MfQImWQgqEUznsMX7A9y4MFMmePx2fzcfXYmWoZbTLY0LjbBjeuhUNTrzefz1EXo5PVc0Zc5GCv6+OriCkLD/MI+vQ1XR7c2LuK3P6BhUXN5xDgFMVBnkXDsoSCWVmhw1Pvw55l1fgmuxpFlsJVxMU9IAf5USa1A7QFxAs1Lm0DCdJ6eKumYh4O5Mu1PgZpwuK+kXrMLoP8LRVIN0cTrQ0JDOnQJKYZQ6moRtUKfhkLXimIuYgtFT++kd/rK3MtBX+nv7OzoyiIGJsFJKJKKGplQMve3Li4OwXYhFOYI6agR6MMIHLtOKX1odgw4SCMH/VUO0sgBPN9RUugOMChGImqHhoQkEQ+0UiLK4mGoRrJAgTrCsH6u8J4XcDBV5mnkYMaCg3KCRI7w8iyphdYKLhmB8fAohJFMiyBUUAp/TVjGTzlIg/t7OAibusMBRofEX8H6VXq9htH1A8JbNhRZPIS4yBuhQvr4leX/nANd93KgU/MA2cAO978ChaVaFGJYpAlYZv0nS4MOi4fgEcwMuCX87bmbg/QyB4qHg+df21ZADSGKN3x0Iv5/wxHYLN0/26XRgJMAA8XXlISFxYHioQAO79CjY4uCrnNxltUQMmsSEKmQY9KORvJOJOIm4e+UhKluptN8BHBC4gw52AGBQCn4u5uCSKRDRxmmF7cgLmIteEifNUnV1QxKwjfPmedPcRTU3QIh1tfNnZ0+I+b5N14KImqVS+XtiIsQD0fsmWq5Am8NBkbaXuhykAJzMHubBFTK8x37EA+HasG6NEtUdlOIixPZ9SII4xp/WuR9CQ1gbVHzzBtiY2wwdvrM5QlAi86GT/CEPKWgY1kDKIwivysQmd1U4x4Gd83HCgdAC1WLVCuF+egPYsByfgyI1D3ggRkG10bgPBNuCHAPftck5NHqZhr3MNSteBiigcFy6TxrFLr16XMmCjF5hOTJjHF9BK/hFX0B0aDKKShad1AdaiXXixn33FidaHYLaoS6A6iEb5+H7VZjw2kG0WcvdDZQPP8WowEaTcUZHTUr97QLE5Ii654LyNmGTCPBhI5xf3nJswRaRVvMIJeOgWewJIG/M331jwa1/qIzNKgTkrPvDHFRk1Uvqp45oZxnaNSwUxunYPEeVbADzR8rrgGCiiX9tAGm474cvMjhAOOiuFC5USzVenKOL7BwOLq8M5SpRxzS6Kh7KwmxxVQxPtslpODmQHNzgAVrKePics1vz4mJ2IgK+acJKtmbI1DVqPeXDoJYMG7+9cYjkrzSiBfqZANqeW/tF3rSaUTj8t8GVpGWKQDVaK4cii1MMIXLhnO5MzYyyBkXV3M6PiC2Wq1G4+wWTD4d9qEgPPMhJhaGOKnfnjUarVaEqSUvB1i412T7YSOf3H5E3kDrL9+e3t5hxXjqZwRCYFRQFPPu9vTtJTDxxhLgNnal04tNn1zmuy+//+xeVwwlDq3pz/4XBigLsz5cFzcMRb//7Psvv1u6ezIvWVxs+2m3K8OI0wmD+Xhmz6r9TyzEZuM5Tjcocd248vtMmeKir4a/Usz02DWp+FHAq2fjtKlcr9xfrrjoP7n6TFke9Kx2CV6JuYr1lfPVD+gRXlqRAD1/7XruxwF062I29sdsgW/7MRGbpnw4wImcyh/eugdBZJPn3uo5s+r5lM4qCqBP55yJJQ7M1InPJyT5hN7GURbFpvMU4yCGrbfWWdCGetC3wd9XTGBisYjFnEgi4IDGRRlKa3VRwfskZdJmzHasztdNGCMWlBRfeJgyp/152jpbwAFGIimUEiET3+MnKd0EsGIJWPnOLLxq5avxgjIxNdlVyAW9SerC9zMIm33ZOLqCpQEXSkoxENCa6fjBY2SM9Xx4POeVFbgJ3OnY7yP2JIkHODUqWiNy8cOPb8/e/XRjYBRIz2azBSAscIZwGN+Fk8ZpsANmBcCgefvjD/5GQMuXcsikHJv8OZ++XvHZDOaOkDS8/fyeiUbm6gxg4hgT0dKtHueIx9F67u9uv3l3Blf7qYDrcD9Eq9iSqCQ2vRiLA3auPF0WtYpBrcbl6d3NjUktm4EuSlTYGkUG6jU3Nzf3n31OMyWeNapVu07LcPK6Dx+FESK/nE5uDBUanI+vFwbSYMye2b7bc5VFoUMb739/jy27vPyZnF2cAM7P8fHk4uL4GDr1lwbF+/fvGy1XDariKkycXM3xQ+LT2DkdlmWZg4W8mRe6Lq7GlIdp+JpOBpXcE6fdPN3AUuyoq12LoEajFir0rEkpYleluzxLPuZ3N8PXx/wKaZbsRa0ZRoqT13P6TfuxC3cpqVDDluU1eNxXC37DOgYPnFQgWrWKjx2LBFpEul6YeFfdZWUo0lep3AxWTRI81oinrpIuDiC1LBVUVe1APxcLvsN6nhRKhNRGcFakO+GTU4yDZAhCgJH2Rhus5Usz91gl2sqx4+vZscOBmidaQcW6GjVtIQd0yQKcBeGgZl9MObhaHXWSztzm5lEQqfa81ZfqSOu0GmfvTl9cNiId9IXV4Y76QkdtRN6evjtrtCLVEuevIxCDdbbeTQ4M2BKsVXTslShqpPHi3kgkEsbdWSMi5CDSivykwFmJm28a9px9lnR8734k08QjpG/+3zKKCwx5cf3WMFKvXr0EFk4bEB3aPnfRIq0zHdr/6tWNYdy3rEtFka8j1fpd4caromUIQMH4vA6B/NdXicS7lmfqjAMn5y6NxM1voDtzJzPjvmGZQdHnziGZFBJClDahIdDA1nprLPhr8kXCgBC5mmI0Sb5xn3hpTVeFjc9bPCL6m0Fbrt1eYs/skhoaQuPOYMM6DH7kZeLzX3zOH5Dai4TxD6s+ljQMNAS1JtKCTY8s2Thywlp/m6+uMvhGHdCU5MvE/S8+X39Ifvkp8QWxb2UmXtCRlLT9b90jPg61QYiLm0Ocfm69TdwwYYg68C8JveTDmUre3Ce+JFaNuvzvBDiDqgk7WyaFhCiJa1pVsqu23iVe0cWVezQZUIyfV+bOMMy/MRO/EatCO/xP4rZlLdP1AQyl+0/y3Z8Ka5T7AYR7tAPSK5ebmC6AHRhdn3DWJb8zO4DgUi4PCdoBJFeiIkldsrm2dfEpQ9enGcav9k8fQDx4Y493ybJl0EXyhsUDjhuIB75iiuFIti1O6zJ5TKAbd67WvUx8zyhLtgddjWjdQRt5GBLyNR0XLKaUFkRE4aIbcbDcFIpEEwWoHugkcAZu5qgPdJb3H7p+FuOQngj0vOQHflTQFbLiAkFeug3xwrQJ+xeXY90mEv/BtqFO/BetBuP8VL7UiXRKea6LCuRXhepEQr4yEqAT1YrQxdrEJ6xuFgNxhfeILrJDEoyXmC+AQdC6ENi5iqUCfCixGFkiP7J8AfImzBfUoiAZW5OnbQ5ruoVxgHkjJoSJu2/5qmsskhQq8C/btdbaJCek9hNmlwn9lIpEMQeqZAoJURW655AXVluNy3enLyK/8/Efxzbw9zz9p/KDoB9+b/D6ASuninxhX555dxtdoUoaOsXlVgtHO9a1uL1BxXVbBTQIa4PCASRZrZaVNos5yEi3HCm0Lm3qkX1XoTxvDaIwnBZ3cT0vGHylaDPYZev2+dn7onEhJ+OuHrFs67m3NbkminGdP+7bwmDgRNSMey+XeGxcM8G3OWSEaZObg4jd2HI0hyRAUknr6Qe5KOfmwFWMFnMgdr1NIisKUi4OoE2cqGQ0Gs01wQUqOKlSbObgNb+84jq/JOJAk6ik7ECYNvWsvZrUDPiAthdF5ApUExZy9BWfPs05RUjgwN/rhRXMzUI48eXYAUQDK1VirQZ/mMA4wV9YFBbtiCD0BQkVEkKYNjnjglqzvzlvdTSXJVXreZRnHEes/rZuXJBn0t2LoqDMe+ToAyfVszkokfwyB23bGYT6oCjpTpaIoG+adre6VuDnHDtwOLDetDfIguH4joBSKiSEyEedzV0dZ/VW3eIAcsam9dx6s2pzoPnTKtGkuxeiWF22TbvjzM2WebNxg/ghN4q29ebE3igtUAESTbovoSoICHm2mcO7G4X3fY3UwBBy7nDg+II6EiRisixLXIVPdesCfwNNtQYGNwcoEHLRCpnAv+og58iDkLMLCIYF0N9X1yufJNOkuxeradOVEX9GvZcHBM3pviQ6goYiuQkhoZeLOj+nZTuPiiZ/EY+Hlz5ImmWJq1hOm47T8Xgap9g0a1mSi4NQO4q/kUktAH8PzYkGNgeYSITogjfTu/5CmmWJq1haF3JtxPnukyHf8urdnQYtH/HIeIg/veu8w31BrTJ1cGLG457fFVxTvNw4PGnTOB6fW8unCPuNoF13alkiZGirhAPNTcI+FcsglC3KwvH41LUUaSLVpLsXriHr3IjHX9tvRJEErBM4JjyCvmzb6mgvk3etMjjAyhJSYAskz+0kWpa4Cke6LMCH3WvI8HezNPd6ASb4M0wq1cv0d1Od6cMuPdujk2fxeP/Y/hiZJt29KPM54xOPEVAMaJKctVyla1tMMsOPgcQqWu7QYSm15w4QXuIsvMg26e4FWx1ztWQEFDBu7kHfDrHLwft9WtGGq4dtMI4DEFvNvdVUAYaZMf7NSquQEKxEfmwsD+gh7NqDULlkz63lhyt5X9T5bfp8HW1qZfLuKk53dsmrkBA8bfLbbxGhPtzcpS5xtA+Po4HTm8nc4QQDQJeu5cXIWfcrT9IbSzfp7oV4tqltWX+y3UYLaFKTKI6GB83BUSHrmEa7XbYuEFQIpFqW6ANoypHf/HN7dThrD93/L0NNXQ4Q+/4lgjb4G2k/wVf9wzDC9qy6OlCQ9aGmnDs4HO12I0dNnxjX9ivWt2kRVrZJdy/KrFB86G1T86PKPm2NVLxs7rExcyjVUiwflFU2tretAwPcu/FRP+GCOziHdftG9dF2MIAo9+h37bTZS+TkI+vgZdzTwiV0HWejiCZjRd0XySFloUurIrnBWlFXjq57uzmqUg5ydBjRZM2Y/XFEWSh9WNPmRCuyXYju00go9YjoC1S8EAs/VPvMfTBcRukur6J808wPwaD4gC//IQ6a9CaV7WQA0aQyqLbOiNdzMKg9yJjkRo4mCFVxOF/HwQHdEbkrcaL8QPBBbVU8Mog5OKIBpbv9DCC4vOv5Jv0CDpJHmEeSkZSzyx+FdsRPQlP4cpBhAqMjbfX4o1A+XJLQFnw4yPQE5249eMtGbe/hFQ4yjC1V4nLZY+CW0BaWdCJPufy85lPBkbYsoTN1l9Pz1Lsn5RqTp8OAjvkVP9XDCiTbkRw/Ek1/Cb23ReWBJwCroufdmTBTUpOtKQ88ASwJzTs9110h5c8Al4RmBZK1mdWnCktCl7a4PPB4cAm91eWBx4NK6P3tLg88Hpnep5EcBwgQIECAAAECBAgQIECAAAECBAgQIECAAAECBAgQIECAAAH+3PiEF8U+EOX/AjXvqqKb30ixAAAAAElFTkSuQmCC;" parent="IX9gkPBXZUI1Ajs194D2-3" vertex="1">
          <mxGeometry x="1" y="4" width="56.07" height="42" as="geometry" />
        </mxCell>
        <mxCell id="IX9gkPBXZUI1Ajs194D2-6" value="" style="group" parent="1" vertex="1" connectable="0">
          <mxGeometry x="544" y="90" width="492" height="233" as="geometry" />
        </mxCell>
        <mxCell id="IX9gkPBXZUI1Ajs194D2-7" value="" style="group" parent="IX9gkPBXZUI1Ajs194D2-6" vertex="1" connectable="0">
          <mxGeometry x="-88" width="133" height="50" as="geometry" />
        </mxCell>
        <mxCell id="IX9gkPBXZUI1Ajs194D2-8" value="&amp;nbsp;&amp;nbsp;&amp;nbsp;&amp;nbsp;&amp;nbsp;&amp;nbsp;&amp;nbsp;&amp;nbsp;&amp;nbsp;&amp;nbsp;&amp;nbsp;&amp;nbsp; Docker Build &lt;br&gt;&lt;div&gt;&amp;nbsp;&amp;nbsp;&amp;nbsp;&amp;nbsp;&amp;nbsp;&amp;nbsp;&amp;nbsp;&amp;nbsp;&amp;nbsp;&amp;nbsp;&amp;nbsp;&amp;nbsp;&amp;nbsp;&amp;nbsp; command&lt;/div&gt;" style="html=1;fillColor=#dae8fc;strokeColor=#6c8ebf;" parent="IX9gkPBXZUI1Ajs194D2-7" vertex="1">
          <mxGeometry width="133" height="50" as="geometry" />
        </mxCell>
        <mxCell id="IX9gkPBXZUI1Ajs194D2-9" value="" style="shape=image;verticalLabelPosition=bottom;labelBackgroundColor=#ffffff;verticalAlign=top;aspect=fixed;imageAspect=0;image=data:image/png,iVBORw0KGgoAAAANSUhEUgAAAQkAAAC+CAMAAAARDgovAAAAwFBMVEX///8klu0oVKEoUZ4kmfEoT5wnZLIlh9wnX60nU6EoW6kkk+okjeMAQZkAQ5r5+/0NR5wna7vBzOLo7fUoWKUmdcclgtUmcsMbTp8mesywvdjd4+46YagWS50li+AAkOxdf7pOb6/Q2Oiks9NYd7OBl8Nwibzn6/TI0uWLnsfDzeJGaqxyi72tutabrdBmgriVx/Xl8v1grvGGmsWfr9B0tvLN5fpLpe81ne6/3fmXx/W22fiq0fdpsvGCvvTE2fAATbrgAAAQNklEQVR4nO1dC3uiOBdWAmqACioqXqLVYqvV6nSn25nZ3Znv//+rj5yAAhKUq2J9n2emk8Gm5G1yrslJpXIJdFZjgQs8Xowu8lYXwKtJ+ETYMJtPl37FYvCi40gi7Gmhv176JQvBzjxBhCCg9aVfsghoJp0SSDDCYT+x8fAVRMWIMoFqqhIOtUWp+BLLA5gQFLHKg0yZaF/6NQsAMCHziRDppLgz8VWZUBQ2ePeL8lWZUA2hTofeF2re5ldkAqGeCEPfN+9M3Jm4M3FnonJn4oA7Ey7uTLi4M+HizoSLOxMu7ky4uDPhwsuE5GdC+rJMyMaEDr1rtLzNL8jEPVJzZ4LhzoQLFuVXeVSIJYtta8nBovxynZPvmNRQeZgY7fSH5HCyokjiAJ6Wg4lh0zyV4k2NUjAx1/OmoSxMWKdT3V+DiQ6BVLchh4Oluk9/AAmc5wYqCxOjJh1HS+EoQQVS3QIa8D6gNuB5TeV10C+L7gAmDK5dVBUNYIprOYkToIpHlI1GciY0LePRRgGYqEWYiNQeQF3+B6qUiJxszA0ZZjzcCFAm0JUy0W5ifTbPesQ8eJhwU90q++qkuj1MuA9U3+cOTAQesGZyJjpUqyF9UdASOTChIuTEE2pVT3PPhDhAMgzRQANvc8+EKiAnOd7wNxMy4WxlI0Yx0+LAxESS6mzowMSh6TLRRQYduuJvepjINno3dE0+XMx+Ti8TyMtEfd+8DBPaGDNDhe7nXOQw8iCulokt3fhrqDVw4fRdDkMP4FqZ0Kjta/dniyMQFlbucvNamVgR573ECayQ/Km4UiY08IbqoIZVGah4zGP4HlwpE09USjQce01pgO+Ss9i8UibW9pwALe6lIl9lep1MLHW/Ca/QBYJJribWdTKxMWkkwOPMqGBijfOUmlfJBMhLn6cv1kFq5ikqrpKJtn4UE2F2xUOO6yOO3yEFmBCCTGSVK4fF0av6AC+Cczw85PFFZZm60WJf7lc9zYNX3pNrMPSaDC9pN6s+JpSGzHLlcsvbTMAEdUKNYBhMhfXxlhMP1xmpCX8nOgnzFJrXyMQbCWgOB3KuRgWLY/LHKdKAbBQTSvZMgJiYHPfUg0mRKxMCP9WtgCvY4I4UXi8qV67Q4Hi8E3EQmQjrDCbFMs1wtZcOD2DNCUZPDUdPZomdWp3zgQHLqXI7qIOhTIbcF+h0jt6Wxz1oUjNFqGI4fmhy4YTIeKluJwUmoJMfiH5O+G/woG9efO9L9yGEZ1gUCGAllpnPzdxT4emATb9DQXPW4ZIJZA5Jmk/bFpELTwlseJcIWJghqsMGtbnNTTIiOvlvjsgAZOV5ZRqbCFqY7qRIYVK8wpRAciMchpPqNqKfJ+9APtUBxOaQ5XllGstF9XAmbOsGk2SH1Ic0+IMGVTEcCmyDQi2F97zv5Mp5HagnOqh2WQc9bgfUYPH9nikT0rE5AUx0kydZaf4kwoYUVbp40ufKIzponOpAOp8JEBRkW+nM20+rzc6yZjPr8Xnx0Z4f6eJwJqJMRGowpLa2+ZYXk/ccAcgQXPsf/NVRVVgmqKnrxDRNhDBGyDSJrjfN3VP0qjmHifz9jigmlCATbzpXYlbBYg2HSZrj7xHxCw8TE5bKVp2Jx5oeJlT2XJkwf5g1vUyEduBhwnmw72ASZML3wG0eMfHK16JsXwoX2NTXbzzNsmdCHEiIDV3yN48iNZIbqQnmyiUnSCUNfE3BE6mBoUuNYKSGZde7EpMnSPI2j5iY09XR5zBRY5rIBV0dDC4ZxOCEMDxMIAlCTgb8FLuJlHAmcsiVMyb6CLOhB5oBJl6otc1ZsPbrIFtjt7q9uj2jmHZS1PqgXzMEhw2sz15OMYECTATnRH5xTHfozpzwNY+YqBhUn3GY6Ld6E9DY/v+225NBDTMuTBzm+paRCYt+B28znxhOETxRBrLElsjHbTABRmYvQl1xIYo9MHrR7DaYmEdbg9FcgEzVQ/bslZGJCj0fcBTbPhMsRhZicpaSiaNk4Plgca3HYyLKyQSEFBtJiGCvE+qjlZIJiOnyXI9I0E5D5WVZmfjwbiSJQ8SEv1++nEx0aKdSPT4V1LM2rTAiSsqEswcxLg/ws3Az1Nj2eWCO3yEBE12nuWeifnauXPI2w3LlhtsMMsHIlyRfM4wJDeMIN4xHBMTH9BD70sdEtd5gSb9WA3x/p3lgQmnAcRWx2+hWPU1PrrzR8nbgNvdMKLUGeK+DRt9pqj4m9t9Ra9Q9HYQy4UQdY60P+3ctcDSonwlqfx3+dv/hiU8Efioz8H2RmrAOPPGJwAPnb2+kJvQNQplYQm3eOOYV22viTxjwmAjDFcas7LUxXLMsjXS+ecWWRkTgG5iIWG9gnEblyqkZfzJXbmTIRKe9ENzjuDHsTHZgLSJ/DGcDjODMP7znyVQ3y5Wf6mDC78Bgk4b7gYGHic5yaxm6c24TydxejzqZNFioNyIBwCRPo1cPB9sfLhi85z0WQeV30GVvbQx4HbjJdm4HMITxfDlcPRqEkH3K2Th7QrhJFUyOIjSjlUU7pXD55UE473neHWBdt0nAeP9hecCdhkc8sJiEYBpBGfGy021mMYNQPiBktOoxeGgwMnUrqDVezSLOR+cEhCSj34uo1OynQVS7bmL2YRtcGe1E2yWQ50+gGfEn+F8pCIB1YtQoC+fQADHteld2dqpgsj7Sni+YnRNv1EqFVn/Qq6tHMWs/Jiqrb66qk96g1RDcDTtYH4fkOJ7hkOWAl7q+ZpyaBz3JqXkvIMkrivXxU0jei22lS+DOXj/A2g0AY9KctUPzfx+cTZ03AFUKsIBMHc8+wl3wSuUxRVT4usH8CipYTdMkRNcN63ubR4MNes1MhDtUZkA4arezds+b1fZt+XJitxU1jhPE/64fbKtyjEMNNCh8m0xQeRmW2opi4iZXBz3dgY0Y+w9vVU5AHsO3a/MUZnROXPq184AQGY8KgYUTBMevHwl28e/QTdoTIlWh8bau0yyzwNuOUl7UUezTPqubZAJUKIl3Agz8Ds5O3/KC5n0xibeF/y1ip29pwQ64xFGhNtqJN2tdMcCq0iO8rTAsT6S8ygiwqsy4h+tfmvFTzNcOSJLFPt6iHZ/SLzvYlIh9NlIDt/zSL58pIPGqxy+3AI7HLRmZbA9Z+IahSFAjE98SE1CXJUkFjlXEIaoygkmJBFMCcuO3FNyG+hsJpISz+/t21CiYl8kO1XciDsyUEDTJkbCOlba+pVgNOKHmcxIiWM1V6UaUBwvthx1ROAerW/JGIVQV0wnd4/V2fDC2GQ0nrbwxuh2RCfv+9OQVrCLOGJYLbFNs6FmN87ALr4FUOoi95BqU4SnTsJUynYridHoJZQTJ8YSlWABQtSyjEIUy/fuT9vn5d+FcgMORolARBcksIzj98e52+v5jmkmX54IVxIyTHA9BZoJC+eH5jWh/FUtFxDmmswGR/kwsCiBCm8/Z158Z9HguwPMSzGS1efZ4odv3Iw4qnIvpL9rboqkT1u+v4iYFOyGQvu4hjeCh9BLuB+1rp+O9U1zcpICjEGnXRsVxPVJHa6Z/Ku7xEKfff4qaFKxSbFLPy4M0Z/UPmP5rd/Vowo63F41O1KKWBzvR1czgjh+4+iK1Zz79dKIdNhXNh6bd72cxTECFK4Gksan2+J7F8gCBOXN3CJuVwuYECImMCubOEx7L9mH6rcJEDhBB40b/FcMEExIpFagL6o+mNa6Uv+yOOqwIDstU/1WExS32s1GgDrZRJaHOxZSa2iNZN03doIcP34uYEuwgcDZCgqIDd+Cl/BXCpKhow8XiDfTZ7wKmBHM3zFl2VbXB90jrmoOk2KMIa0KcsFMbMXeNROE1RX2TA8C4cvCtiLWhgtpIlPLiQfNfipIU0x+/mPf1WYhTDheWpHXFg3giWdiZVWX68/efP79/FhOoYZfYHB13TAco351J0pyexsugmzMAB72yUxsuVtlMigLBiMj+NriOnrQS0oVQY/ozcyIc56M8k6KWtSFxQMe5eS/mG4lq7xIhfRCW5jqfe0qSVEIS1ZYkFZ43Epn6zIuIigZ+WJzQrqj04eB8wRs6RdXIlQhWrplffPT4hZQ+K2FQsHQR61D4hOQiIxys0dnDEu114ZxaN0mhGofFsXO+NnMOF9SfEbwSlV7NqWGA9N3/ipwSYp/dKpu5QeXHAkJO0etDFKv1lnEo0bysVP4tLLPhXJGA9aQbZ84FE5r8A6SiaM+GPQ0Cao7ZqbOiMn/ihN1qUcDt00uwNFvHlS6grfZa8qGmhUlm7uk77WchNoVzyTAiqe5zOhMrVs8Kqp94qpvUB10ob+Kp7IEXnrBAEQF9UWmBiAipMZMLWJzerR0F1U0wVDfxVPhApGkN/Rmn/OPYtvJkBdqec792mqETfeMRxqbeXD8dJ97+zpcKscpui8HH1Zdyw1LnlXXCJtHN8Sa8zksl1yiVOyGIkeuNugF8OLOCXoIiHcqbNM3182rJX6I5Sk1bQjhplOf0WeA4WAAVeLHaWLP1em3tFqvVtv3SObE+36s5USG6heoyjliegR0okNjm7HsuYTungiMtVJdhMP9cPFIqTDmutsphVlC331mr+V0fGwENqJBwXAvmPWNZYbu7bqJ1d4EJQaHBAsEkrsrKlAqx6lQuxMRIeg1iBthQZYr1x5jCQstMmYpKlxVMtJV33v5WNNilkiaO+9vIxsQS1b5TONLUN8WqzmMMaYg3wQpNnxoWxUlLcMMfj0XaUhyMDMKk9ireEvlMlwuEAq8OD81ZEW7nGVgwy5uQbSwuUuxUFquTvuvs2W7/lfBg43VMGBd4G2ux/pfIshBFddBwC7ya+s7Hg3ZhaaF9Z4W9McGbOAv2Pfa0oNdz1fbldQlZ+Ow6bbPbWBeWGCOr6cawx9v305938asagwuYDfv760zd/AjMgNlwNO+MLy0855bObifG5GHNLTp6jG/ncWFPhnpf3t/fjYm5O6qN3t6MZh+7Ufqd2Wkxf9adjZaINGer5ZlL9v2PcoILykK3Jnho0EMLvG6Ho/XmScPZDisRRitTR86NCESXre3yrIXy/mfK40K0V0SvXzOQ54bLprEK9/qGq9HmdfMSo/JnjtDaM504ZGBEo1eL4edp5ar9IwbMC4ibq72ulwTo0Vhx5YA2fp1XhtYFvQ8/Ok8z073DgEY0if5Q262G844Wyciv31SnssyBok56Tpj8ECK2RSS2tpExgNFssZpxbuS5DF7edqZOsGcQhDSb8my3WT2156PR+3sIKdrnn0m9N+i3ag3DVwXcCY6uF+3Tkmc0urT7cQRtuVo/wPUOh+EgVsmZYKMxXq/XM8t6pKDXYq/X47FsCMifKKDfRCXOg7wYnip7fNXQllvL9hKJeRQHZ5dfsDgwXIsdchcGhpVlGtb29ep+z4kwel3t1gZcBX7mfQ82RfSycDKePW8jwuTlRGfU/vhOCaG3o9Pr0ekU8KwbmAB07cB16WNrs3qbl3o5nIKmvczbw6ft982jNRuPDXbfj2GM17PZ4/Ni9TRsL0fRKuai+D8H39zPahpNnQAAAABJRU5ErkJggg==;" parent="IX9gkPBXZUI1Ajs194D2-7" vertex="1">
          <mxGeometry x="3.079999999999984" y="10" width="41.84" height="30" as="geometry" />
        </mxCell>
        <mxCell id="IX9gkPBXZUI1Ajs194D2-10" value="" style="group" parent="IX9gkPBXZUI1Ajs194D2-6" vertex="1" connectable="0">
          <mxGeometry x="-227.92000000000002" width="115.92" height="50" as="geometry" />
        </mxCell>
        <mxCell id="IX9gkPBXZUI1Ajs194D2-11" value="" style="group" parent="IX9gkPBXZUI1Ajs194D2-10" vertex="1" connectable="0">
          <mxGeometry width="115.92" height="50" as="geometry" />
        </mxCell>
        <mxCell id="IX9gkPBXZUI1Ajs194D2-12" value="" style="html=1;fillColor=#dae8fc;strokeColor=#6c8ebf;" parent="IX9gkPBXZUI1Ajs194D2-11" vertex="1">
          <mxGeometry width="115.92" height="50" as="geometry" />
        </mxCell>
        <mxCell id="IX9gkPBXZUI1Ajs194D2-13" value="" style="shape=image;verticalLabelPosition=bottom;labelBackgroundColor=#ffffff;verticalAlign=top;aspect=fixed;imageAspect=0;image=https://github.com/GoogleContainerTools/jib/raw/master/logo/jib-build-docker-java-container-image.png;container=1;" parent="IX9gkPBXZUI1Ajs194D2-11" vertex="1">
          <mxGeometry x="16.84891891891897" y="8.159999999999997" width="82.21704324324324" height="33.67945945945946" as="geometry" />
        </mxCell>
        <mxCell id="IX9gkPBXZUI1Ajs194D2-14" value="" style="group" parent="1" vertex="1" connectable="0">
          <mxGeometry x="181" y="90" width="120" height="50" as="geometry" />
        </mxCell>
        <mxCell id="IX9gkPBXZUI1Ajs194D2-15" value="&amp;nbsp;&amp;nbsp;&amp;nbsp;&amp;nbsp;&amp;nbsp;&amp;nbsp;&amp;nbsp;&amp;nbsp;&amp;nbsp;&amp;nbsp;&amp;nbsp;&amp;nbsp; Kaniko" style="html=1;align=center;fillColor=#dae8fc;strokeColor=#6c8ebf;" parent="IX9gkPBXZUI1Ajs194D2-14" vertex="1">
          <mxGeometry width="120" height="50" as="geometry" />
        </mxCell>
        <mxCell id="IX9gkPBXZUI1Ajs194D2-16" value="" style="shape=image;verticalLabelPosition=bottom;labelBackgroundColor=#ffffff;verticalAlign=top;aspect=fixed;imageAspect=0;image=https://gitlab.com/uploads/-/system/project/avatar/22284858/kaniko.png;" parent="IX9gkPBXZUI1Ajs194D2-14" vertex="1">
          <mxGeometry x="11" y="4" width="46" height="46" as="geometry" />
        </mxCell>
        <mxCell id="IX9gkPBXZUI1Ajs194D2-17" value="" style="group" parent="1" vertex="1" connectable="0">
          <mxGeometry x="402" y="220" width="180" height="50" as="geometry" />
        </mxCell>
        <mxCell id="IX9gkPBXZUI1Ajs194D2-18" value="&amp;nbsp;&amp;nbsp;&amp;nbsp;&amp;nbsp;&amp;nbsp;&amp;nbsp;&amp;nbsp;&amp;nbsp;&amp;nbsp; &amp;lt;&amp;lt;Docker V2 Image&amp;gt;&amp;gt;" style="html=1;fillColor=#f8cecc;strokeColor=#b85450;" parent="IX9gkPBXZUI1Ajs194D2-17" vertex="1">
          <mxGeometry width="180" height="50" as="geometry" />
        </mxCell>
        <mxCell id="IX9gkPBXZUI1Ajs194D2-19" value="" style="shape=image;verticalLabelPosition=bottom;labelBackgroundColor=#ffffff;verticalAlign=top;aspect=fixed;imageAspect=0;image=data:image/png,iVBORw0KGgoAAAANSUhEUgAAAQkAAAC+CAMAAAARDgovAAAAwFBMVEX///8klu0oVKEoUZ4kmfEoT5wnZLIlh9wnX60nU6EoW6kkk+okjeMAQZkAQ5r5+/0NR5wna7vBzOLo7fUoWKUmdcclgtUmcsMbTp8mesywvdjd4+46YagWS50li+AAkOxdf7pOb6/Q2Oiks9NYd7OBl8Nwibzn6/TI0uWLnsfDzeJGaqxyi72tutabrdBmgriVx/Xl8v1grvGGmsWfr9B0tvLN5fpLpe81ne6/3fmXx/W22fiq0fdpsvGCvvTE2fAATbrgAAAQNklEQVR4nO1dC3uiOBdWAmqACioqXqLVYqvV6nSn25nZ3Znv//+rj5yAAhKUq2J9n2emk8Gm5G1yrslJpXIJdFZjgQs8Xowu8lYXwKtJ+ETYMJtPl37FYvCi40gi7Gmhv176JQvBzjxBhCCg9aVfsghoJp0SSDDCYT+x8fAVRMWIMoFqqhIOtUWp+BLLA5gQFLHKg0yZaF/6NQsAMCHziRDppLgz8VWZUBQ2ePeL8lWZUA2hTofeF2re5ldkAqGeCEPfN+9M3Jm4M3FnonJn4oA7Ey7uTLi4M+HizoSLOxMu7ky4uDPhwsuE5GdC+rJMyMaEDr1rtLzNL8jEPVJzZ4LhzoQLFuVXeVSIJYtta8nBovxynZPvmNRQeZgY7fSH5HCyokjiAJ6Wg4lh0zyV4k2NUjAx1/OmoSxMWKdT3V+DiQ6BVLchh4Oluk9/AAmc5wYqCxOjJh1HS+EoQQVS3QIa8D6gNuB5TeV10C+L7gAmDK5dVBUNYIprOYkToIpHlI1GciY0LePRRgGYqEWYiNQeQF3+B6qUiJxszA0ZZjzcCFAm0JUy0W5ifTbPesQ8eJhwU90q++qkuj1MuA9U3+cOTAQesGZyJjpUqyF9UdASOTChIuTEE2pVT3PPhDhAMgzRQANvc8+EKiAnOd7wNxMy4WxlI0Yx0+LAxESS6mzowMSh6TLRRQYduuJvepjINno3dE0+XMx+Ti8TyMtEfd+8DBPaGDNDhe7nXOQw8iCulokt3fhrqDVw4fRdDkMP4FqZ0Kjta/dniyMQFlbucvNamVgR573ECayQ/Km4UiY08IbqoIZVGah4zGP4HlwpE09USjQce01pgO+Ss9i8UibW9pwALe6lIl9lep1MLHW/Ca/QBYJJribWdTKxMWkkwOPMqGBijfOUmlfJBMhLn6cv1kFq5ikqrpKJtn4UE2F2xUOO6yOO3yEFmBCCTGSVK4fF0av6AC+Cczw85PFFZZm60WJf7lc9zYNX3pNrMPSaDC9pN6s+JpSGzHLlcsvbTMAEdUKNYBhMhfXxlhMP1xmpCX8nOgnzFJrXyMQbCWgOB3KuRgWLY/LHKdKAbBQTSvZMgJiYHPfUg0mRKxMCP9WtgCvY4I4UXi8qV67Q4Hi8E3EQmQjrDCbFMs1wtZcOD2DNCUZPDUdPZomdWp3zgQHLqXI7qIOhTIbcF+h0jt6Wxz1oUjNFqGI4fmhy4YTIeKluJwUmoJMfiH5O+G/woG9efO9L9yGEZ1gUCGAllpnPzdxT4emATb9DQXPW4ZIJZA5Jmk/bFpELTwlseJcIWJghqsMGtbnNTTIiOvlvjsgAZOV5ZRqbCFqY7qRIYVK8wpRAciMchpPqNqKfJ+9APtUBxOaQ5XllGstF9XAmbOsGk2SH1Ic0+IMGVTEcCmyDQi2F97zv5Mp5HagnOqh2WQc9bgfUYPH9nikT0rE5AUx0kydZaf4kwoYUVbp40ufKIzponOpAOp8JEBRkW+nM20+rzc6yZjPr8Xnx0Z4f6eJwJqJMRGowpLa2+ZYXk/ccAcgQXPsf/NVRVVgmqKnrxDRNhDBGyDSJrjfN3VP0qjmHifz9jigmlCATbzpXYlbBYg2HSZrj7xHxCw8TE5bKVp2Jx5oeJlT2XJkwf5g1vUyEduBhwnmw72ASZML3wG0eMfHK16JsXwoX2NTXbzzNsmdCHEiIDV3yN48iNZIbqQnmyiUnSCUNfE3BE6mBoUuNYKSGZde7EpMnSPI2j5iY09XR5zBRY5rIBV0dDC4ZxOCEMDxMIAlCTgb8FLuJlHAmcsiVMyb6CLOhB5oBJl6otc1ZsPbrIFtjt7q9uj2jmHZS1PqgXzMEhw2sz15OMYECTATnRH5xTHfozpzwNY+YqBhUn3GY6Ld6E9DY/v+225NBDTMuTBzm+paRCYt+B28znxhOETxRBrLElsjHbTABRmYvQl1xIYo9MHrR7DaYmEdbg9FcgEzVQ/bslZGJCj0fcBTbPhMsRhZicpaSiaNk4Plgca3HYyLKyQSEFBtJiGCvE+qjlZIJiOnyXI9I0E5D5WVZmfjwbiSJQ8SEv1++nEx0aKdSPT4V1LM2rTAiSsqEswcxLg/ws3Az1Nj2eWCO3yEBE12nuWeifnauXPI2w3LlhtsMMsHIlyRfM4wJDeMIN4xHBMTH9BD70sdEtd5gSb9WA3x/p3lgQmnAcRWx2+hWPU1PrrzR8nbgNvdMKLUGeK+DRt9pqj4m9t9Ra9Q9HYQy4UQdY60P+3ctcDSonwlqfx3+dv/hiU8Efioz8H2RmrAOPPGJwAPnb2+kJvQNQplYQm3eOOYV22viTxjwmAjDFcas7LUxXLMsjXS+ecWWRkTgG5iIWG9gnEblyqkZfzJXbmTIRKe9ENzjuDHsTHZgLSJ/DGcDjODMP7znyVQ3y5Wf6mDC78Bgk4b7gYGHic5yaxm6c24TydxejzqZNFioNyIBwCRPo1cPB9sfLhi85z0WQeV30GVvbQx4HbjJdm4HMITxfDlcPRqEkH3K2Th7QrhJFUyOIjSjlUU7pXD55UE473neHWBdt0nAeP9hecCdhkc8sJiEYBpBGfGy021mMYNQPiBktOoxeGgwMnUrqDVezSLOR+cEhCSj34uo1OynQVS7bmL2YRtcGe1E2yWQ50+gGfEn+F8pCIB1YtQoC+fQADHteld2dqpgsj7Sni+YnRNv1EqFVn/Qq6tHMWs/Jiqrb66qk96g1RDcDTtYH4fkOJ7hkOWAl7q+ZpyaBz3JqXkvIMkrivXxU0jei22lS+DOXj/A2g0AY9KctUPzfx+cTZ03AFUKsIBMHc8+wl3wSuUxRVT4usH8CipYTdMkRNcN63ubR4MNes1MhDtUZkA4arezds+b1fZt+XJitxU1jhPE/64fbKtyjEMNNCh8m0xQeRmW2opi4iZXBz3dgY0Y+w9vVU5AHsO3a/MUZnROXPq184AQGY8KgYUTBMevHwl28e/QTdoTIlWh8bau0yyzwNuOUl7UUezTPqubZAJUKIl3Agz8Ds5O3/KC5n0xibeF/y1ip29pwQ64xFGhNtqJN2tdMcCq0iO8rTAsT6S8ygiwqsy4h+tfmvFTzNcOSJLFPt6iHZ/SLzvYlIh9NlIDt/zSL58pIPGqxy+3AI7HLRmZbA9Z+IahSFAjE98SE1CXJUkFjlXEIaoygkmJBFMCcuO3FNyG+hsJpISz+/t21CiYl8kO1XciDsyUEDTJkbCOlba+pVgNOKHmcxIiWM1V6UaUBwvthx1ROAerW/JGIVQV0wnd4/V2fDC2GQ0nrbwxuh2RCfv+9OQVrCLOGJYLbFNs6FmN87ALr4FUOoi95BqU4SnTsJUynYridHoJZQTJ8YSlWABQtSyjEIUy/fuT9vn5d+FcgMORolARBcksIzj98e52+v5jmkmX54IVxIyTHA9BZoJC+eH5jWh/FUtFxDmmswGR/kwsCiBCm8/Z158Z9HguwPMSzGS1efZ4odv3Iw4qnIvpL9rboqkT1u+v4iYFOyGQvu4hjeCh9BLuB+1rp+O9U1zcpICjEGnXRsVxPVJHa6Z/Ku7xEKfff4qaFKxSbFLPy4M0Z/UPmP5rd/Vowo63F41O1KKWBzvR1czgjh+4+iK1Zz79dKIdNhXNh6bd72cxTECFK4Gksan2+J7F8gCBOXN3CJuVwuYECImMCubOEx7L9mH6rcJEDhBB40b/FcMEExIpFagL6o+mNa6Uv+yOOqwIDstU/1WExS32s1GgDrZRJaHOxZSa2iNZN03doIcP34uYEuwgcDZCgqIDd+Cl/BXCpKhow8XiDfTZ7wKmBHM3zFl2VbXB90jrmoOk2KMIa0KcsFMbMXeNROE1RX2TA8C4cvCtiLWhgtpIlPLiQfNfipIU0x+/mPf1WYhTDheWpHXFg3giWdiZVWX68/efP79/FhOoYZfYHB13TAco351J0pyexsugmzMAB72yUxsuVtlMigLBiMj+NriOnrQS0oVQY/ozcyIc56M8k6KWtSFxQMe5eS/mG4lq7xIhfRCW5jqfe0qSVEIS1ZYkFZ43Epn6zIuIigZ+WJzQrqj04eB8wRs6RdXIlQhWrplffPT4hZQ+K2FQsHQR61D4hOQiIxys0dnDEu114ZxaN0mhGofFsXO+NnMOF9SfEbwSlV7NqWGA9N3/ipwSYp/dKpu5QeXHAkJO0etDFKv1lnEo0bysVP4tLLPhXJGA9aQbZ84FE5r8A6SiaM+GPQ0Cao7ZqbOiMn/ihN1qUcDt00uwNFvHlS6grfZa8qGmhUlm7uk77WchNoVzyTAiqe5zOhMrVs8Kqp94qpvUB10ob+Kp7IEXnrBAEQF9UWmBiAipMZMLWJzerR0F1U0wVDfxVPhApGkN/Rmn/OPYtvJkBdqec792mqETfeMRxqbeXD8dJ97+zpcKscpui8HH1Zdyw1LnlXXCJtHN8Sa8zksl1yiVOyGIkeuNugF8OLOCXoIiHcqbNM3182rJX6I5Sk1bQjhplOf0WeA4WAAVeLHaWLP1em3tFqvVtv3SObE+36s5USG6heoyjliegR0okNjm7HsuYTungiMtVJdhMP9cPFIqTDmutsphVlC331mr+V0fGwENqJBwXAvmPWNZYbu7bqJ1d4EJQaHBAsEkrsrKlAqx6lQuxMRIeg1iBthQZYr1x5jCQstMmYpKlxVMtJV33v5WNNilkiaO+9vIxsQS1b5TONLUN8WqzmMMaYg3wQpNnxoWxUlLcMMfj0XaUhyMDMKk9ireEvlMlwuEAq8OD81ZEW7nGVgwy5uQbSwuUuxUFquTvuvs2W7/lfBg43VMGBd4G2ux/pfIshBFddBwC7ya+s7Hg3ZhaaF9Z4W9McGbOAv2Pfa0oNdz1fbldQlZ+Ow6bbPbWBeWGCOr6cawx9v305938asagwuYDfv760zd/AjMgNlwNO+MLy0855bObifG5GHNLTp6jG/ncWFPhnpf3t/fjYm5O6qN3t6MZh+7Ufqd2Wkxf9adjZaINGer5ZlL9v2PcoILykK3Jnho0EMLvG6Ho/XmScPZDisRRitTR86NCESXre3yrIXy/mfK40K0V0SvXzOQ54bLprEK9/qGq9HmdfMSo/JnjtDaM504ZGBEo1eL4edp5ar9IwbMC4ibq72ulwTo0Vhx5YA2fp1XhtYFvQ8/Ok8z073DgEY0if5Q262G844Wyciv31SnssyBok56Tpj8ECK2RSS2tpExgNFssZpxbuS5DF7edqZOsGcQhDSb8my3WT2156PR+3sIKdrnn0m9N+i3ag3DVwXcCY6uF+3Tkmc0urT7cQRtuVo/wPUOh+EgVsmZYKMxXq/XM8t6pKDXYq/X47FsCMifKKDfRCXOg7wYnip7fNXQllvL9hKJeRQHZ5dfsDgwXIsdchcGhpVlGtb29ep+z4kwel3t1gZcBX7mfQ82RfSycDKePW8jwuTlRGfU/vhOCaG3o9Pr0ekU8KwbmAB07cB16WNrs3qbl3o5nIKmvczbw6ft982jNRuPDXbfj2GM17PZ4/Ni9TRsL0fRKuai+D8H39zPahpNnQAAAABJRU5ErkJggg==;" parent="IX9gkPBXZUI1Ajs194D2-17" vertex="1">
          <mxGeometry x="2.240000000000009" y="8" width="41.84" height="30" as="geometry" />
        </mxCell>
        <mxCell id="IX9gkPBXZUI1Ajs194D2-20" value="&lt;div&gt;Build&lt;/div&gt;" style="edgeStyle=orthogonalEdgeStyle;rounded=0;orthogonalLoop=1;jettySize=auto;html=1;" parent="1" source="IX9gkPBXZUI1Ajs194D2-12" target="IX9gkPBXZUI1Ajs194D2-27" edge="1">
          <mxGeometry relative="1" as="geometry" />
        </mxCell>
        <mxCell id="IX9gkPBXZUI1Ajs194D2-21" value="Build" style="edgeStyle=orthogonalEdgeStyle;rounded=0;orthogonalLoop=1;jettySize=auto;html=1;" parent="1" source="IX9gkPBXZUI1Ajs194D2-8" target="IX9gkPBXZUI1Ajs194D2-18" edge="1">
          <mxGeometry relative="1" as="geometry" />
        </mxCell>
        <mxCell id="IX9gkPBXZUI1Ajs194D2-22" value="Build" style="edgeStyle=orthogonalEdgeStyle;rounded=0;orthogonalLoop=1;jettySize=auto;html=1;entryX=0.25;entryY=0;entryDx=0;entryDy=0;" parent="1" source="IX9gkPBXZUI1Ajs194D2-15" target="IX9gkPBXZUI1Ajs194D2-27" edge="1">
          <mxGeometry relative="1" as="geometry" />
        </mxCell>
        <mxCell id="IX9gkPBXZUI1Ajs194D2-23" value="Build" style="edgeStyle=orthogonalEdgeStyle;rounded=0;orthogonalLoop=1;jettySize=auto;html=1;entryX=0;entryY=0.75;entryDx=0;entryDy=0;" parent="1" source="IX9gkPBXZUI1Ajs194D2-4" target="IX9gkPBXZUI1Ajs194D2-27" edge="1">
          <mxGeometry relative="1" as="geometry">
            <Array as="points">
              <mxPoint x="86" y="288" />
            </Array>
          </mxGeometry>
        </mxCell>
        <mxCell id="IX9gkPBXZUI1Ajs194D2-24" value="Build" style="edgeStyle=orthogonalEdgeStyle;rounded=0;orthogonalLoop=1;jettySize=auto;html=1;entryX=1.021;entryY=0.14;entryDx=0;entryDy=0;entryPerimeter=0;" parent="1" source="IX9gkPBXZUI1Ajs194D2-9" target="IX9gkPBXZUI1Ajs194D2-27" edge="1">
          <mxGeometry relative="1" as="geometry">
            <Array as="points">
              <mxPoint x="480" y="210" />
              <mxPoint x="363" y="210" />
              <mxPoint x="363" y="227" />
            </Array>
          </mxGeometry>
        </mxCell>
        <mxCell id="IX9gkPBXZUI1Ajs194D2-25" value="" style="group" parent="1" vertex="1" connectable="0">
          <mxGeometry x="185" y="220" width="176" height="50" as="geometry" />
        </mxCell>
        <mxCell id="IX9gkPBXZUI1Ajs194D2-26" value="" style="group" parent="IX9gkPBXZUI1Ajs194D2-25" vertex="1" connectable="0">
          <mxGeometry x="36" width="140" height="50" as="geometry" />
        </mxCell>
        <mxCell id="IX9gkPBXZUI1Ajs194D2-27" value="&amp;nbsp;&amp;nbsp;&amp;nbsp;&amp;nbsp;&amp;nbsp;&amp;nbsp;&amp;nbsp;&amp;nbsp; &amp;lt;&amp;lt;OCI Image&amp;gt;&amp;gt;" style="html=1;fillColor=#ffe6cc;strokeColor=#d79b00;" parent="IX9gkPBXZUI1Ajs194D2-26" vertex="1">
          <mxGeometry x="-40" width="140" height="50" as="geometry" />
        </mxCell>
        <mxCell id="IX9gkPBXZUI1Ajs194D2-28" value="" style="shape=image;verticalLabelPosition=bottom;labelBackgroundColor=#ffffff;verticalAlign=top;aspect=fixed;imageAspect=0;image=data:image/png,iVBORw0KGgoAAAANSUhEUgAAAOAAAADgCAMAAAAt85rTAAAAilBMVEX///8kGEx2eHYTAEOjnrMAADvo5+oJAEIgE0k/NGPl5erc2+EfEUlIQWUQAEL8/P2em6ywrbupq6lwcnC3uLfDxcPZ1+GWmZa9vr13enfv8O9oYX8aCkeOiKKHiYePkY8AAD80Jlw2LViQi6DZ2tmdmK0AADIAADdhWnsAADDR0tGGf5xzbYgsHFZpxyFeAAACB0lEQVR4nO3dXU8aQRSAYZSPIqBoW6mirUpFtOr//3vekSzJaWgzrHM2z3vNmc0T7iY7O72eJEmSVEHLUSeah8DB5kv+7h8mMbB/lL/ZSceBY8DkAWYPMHuA2QPMHmD2ALMHmD3A7AFmDzB7gNkDjOb6ZxV1Wxw4Xv0+r6ibcWng7HTSm1dTbzA7BLCiAIMxwFoCDMYAawkwGAOsJcBgDHDb42WJHhtrLteDsPWyZeDXbwU6vmq8N7cY9sOeFq0Djwt01VhzcRY+/miYEnj9D8ApICAgICAgICAgICAgICAgICAgIGAHgLsbv/ezsE1VG7+/9u2yseb05DRsVdM/eLfct+aR/vkkbtr86ecCf4QPKBZgMAa4DfCwAQZjgNsADxtgMAa4DfCw5QROnm/CnpuPzwlcDG/DqnqV67+BWbYsAAEBAQEBAQEBAQEBAQEBAQEBAQEBAQEBAQEBAQEBASsD7lwzlwZ4fbdvzWMFaYD7t/PJo84BO3+0BxAQEBAQEBAQEBAQEBAQEBAQEBAwFbBEOzvbm/hj/i9tnwD9871EzesYRj/jXkctAz85wGAMsJYAgzHAWgIMxgBrCTAYA6yl8sDx6vyiot6KXxXd+cu+8wSYPcDsAWYPMHuA2QPMHmD2ALMHmD3A7AFmDzB7gNn7G3D9Mszf5j0GjqadaB4CJUmSpBb7ALJmUgSo2hAjAAAAAElFTkSuQmCC;" parent="IX9gkPBXZUI1Ajs194D2-25" vertex="1">
          <mxGeometry y="8" width="34" height="34" as="geometry" />
        </mxCell>
      </root>
    </mxGraphModel>
  </diagram>
  <diagram id="I3gOuWTChhW6IPKzqlUh" name="Image Run">
    <mxGraphModel dx="888" dy="372" grid="1" gridSize="10" guides="1" tooltips="1" connect="1" arrows="1" fold="1" page="1" pageScale="1" pageWidth="850" pageHeight="1100" math="0" shadow="0">
      <root>
        <mxCell id="20H57iQiFcqCnkmzl_gZ-0" />
        <mxCell id="20H57iQiFcqCnkmzl_gZ-1" parent="20H57iQiFcqCnkmzl_gZ-0" />
        <mxCell id="20H57iQiFcqCnkmzl_gZ-3" value="&lt;p style=&quot;margin: 4px 0px 0px 10px&quot; align=&quot;left&quot;&gt;Native Runtime&lt;br&gt;&lt;/p&gt;" style="html=1;strokeWidth=1;shape=mxgraph.sysml.package;html=1;overflow=fill;whiteSpace=wrap;fillColor=#d5e8d4;strokeColor=#82b366;" parent="20H57iQiFcqCnkmzl_gZ-1" vertex="1">
          <mxGeometry x="74" y="460.5" width="316" height="135" as="geometry" />
        </mxCell>
        <mxCell id="20H57iQiFcqCnkmzl_gZ-4" value="" style="group;fillColor=#dae8fc;strokeColor=#6c8ebf;" parent="20H57iQiFcqCnkmzl_gZ-1" vertex="1" connectable="0">
          <mxGeometry x="217" y="265" width="110" height="50" as="geometry" />
        </mxCell>
        <mxCell id="20H57iQiFcqCnkmzl_gZ-5" value="&amp;nbsp;&amp;nbsp;&amp;nbsp;&amp;nbsp;&amp;nbsp;&amp;nbsp;&amp;nbsp;&amp;nbsp;&amp;nbsp;&amp;nbsp;&amp;nbsp;&amp;nbsp;&amp;nbsp;&amp;nbsp;&amp;nbsp; Podman" style="html=1;fillColor=#dae8fc;strokeColor=#6c8ebf;" parent="20H57iQiFcqCnkmzl_gZ-4" vertex="1">
          <mxGeometry width="110" height="50" as="geometry" />
        </mxCell>
        <mxCell id="20H57iQiFcqCnkmzl_gZ-6" value="" style="shape=image;verticalLabelPosition=bottom;labelBackgroundColor=#ffffff;verticalAlign=top;aspect=fixed;imageAspect=0;image=https://www.suse.com/c/wp-content/uploads/2019/06/Capture-d%E2%80%99e%CC%81cran-2019-06-06-a%CC%80-16.38.36.png;" parent="20H57iQiFcqCnkmzl_gZ-4" vertex="1">
          <mxGeometry x="10" y="4.5" width="40.61" height="41" as="geometry" />
        </mxCell>
        <mxCell id="20H57iQiFcqCnkmzl_gZ-7" value="" style="group" parent="20H57iQiFcqCnkmzl_gZ-1" vertex="1" connectable="0">
          <mxGeometry x="433.0000000000001" y="265" width="136.51" height="50" as="geometry" />
        </mxCell>
        <mxCell id="20H57iQiFcqCnkmzl_gZ-8" value="" style="html=1;fillColor=#dae8fc;strokeColor=#6c8ebf;" parent="20H57iQiFcqCnkmzl_gZ-7" vertex="1">
          <mxGeometry width="136.51" height="50" as="geometry" />
        </mxCell>
        <mxCell id="20H57iQiFcqCnkmzl_gZ-9" value="" style="shape=image;verticalLabelPosition=bottom;labelBackgroundColor=#ffffff;verticalAlign=top;aspect=fixed;imageAspect=0;image=data:image/png,iVBORw0KGgoAAAANSUhEUgAAAYUAAAB1CAMAAACWGA3XAAAAZlBMVEX///9XV1cAAACvr6/a2tqysrKHh4fg4OCUlJS1tbUzMzObm5vGxsb4+Pirq6t1dXU4ODhoaGh+fn7n5+fNzc15eXnx8fHU1NRlZWVgYGC7u7s9PT0RERHJycnl5eX19fWNjY0cHBxKdKiOAAAC5klEQVR4nO3dbXeaMBiAYa1WcKjUl2p1W93+/5+cEQIJDUma0vrM3tcnDwQSuec5xXY6GgEAAAAAAAAAgO9gP023vPXi70b+kC679eLvBhUkoIIEVJCAChJQQQIqSEAFCaggARUkoIIEVJCAChJQQQIqSEAFCaggARUkoIIEVJCAChJQQQIqSBBX4ee49YsKg4urMDeO+CG+wqLyO+HQrD72dfBFed1hhWX9ol0nHLuqj52Hhw6JChYqDIUKElBBAipIQAUJqCDBRyrsisph8FV5UUECKkhABQmoIEFb4ansNzWOoMLw2gqbyCPiK5wnYbvLuCxi3PYybuEdoWa8PtA/bR7rHSdjSVvPCdTPRdP6sfpnt/NOt7+MOIVWfQpehd2nV9iOw4rLuHnEOLXamXeE+t/Xzh2lsaSD5wSrkX2/UHinU0++9I4YVy9H/1XIqWCjQhAVqOBABScqUMGNCg0qVGt57HcwKswc+5/rfWaFwhpxrLeqCtcNk3rDsR5g3S84pvgTqJBbo9eOCqvuKfUS1sGr4LtfmAxy76znLwPjdIWVY1/uqGDPqy9L82lN7713PgUqLKzRG0eFffeUZ0eFZ88S3BXWD7a095GoQAUqVL5vBXMJVIjCa+HqCyrsi34bY/q0Cvmbc1LBVSEbh6VX6EUFKlSoQAUqVKhABSpUqEAFZ4Vy8VZhTJ9W4eQ469VuRAVjkK7gevv+E+6dTVRoUIEKVKj8lxUOnd/LbY19VPiqCj7vr3Cc9VNPV1coHfv1NU6ooKdVf2CgK7w4pmh+ezxKreB8ZnnnKty6gk/K32BEVtDUS/EG9wsvnatABSr4UUGhQoMKQVSwUaFZBBUaVPBbRnwLpbofjPkWy/Nl3Kvzmyuzemu7pXNolrAUdR+2NR63zEVkjrNY05pXwXe12gp/n+LwuXnD4zMkJaCCBFSQgAoSUEECKkhABQmoIAEVJIh596DPMnx6AAAAAAAAAAAE+wesTIV1yK4ATQAAAABJRU5ErkJggg==;" parent="20H57iQiFcqCnkmzl_gZ-7" vertex="1">
          <mxGeometry x="15.889999999999873" y="9.25" width="104.73" height="31.5" as="geometry" />
        </mxCell>
        <mxCell id="20H57iQiFcqCnkmzl_gZ-10" value="" style="group" parent="20H57iQiFcqCnkmzl_gZ-1" vertex="1" connectable="0">
          <mxGeometry x="389" y="388" width="176" height="50" as="geometry" />
        </mxCell>
        <mxCell id="20H57iQiFcqCnkmzl_gZ-11" value="" style="group" parent="20H57iQiFcqCnkmzl_gZ-10" vertex="1" connectable="0">
          <mxGeometry x="-35" width="140" height="50" as="geometry" />
        </mxCell>
        <mxCell id="20H57iQiFcqCnkmzl_gZ-12" value="&amp;nbsp;&amp;nbsp;&amp;nbsp;&amp;nbsp;&amp;nbsp;&amp;nbsp;&amp;nbsp;&amp;nbsp; &amp;lt;&amp;lt;OCI Runtime&amp;gt;&amp;gt;" style="html=1;fillColor=#ffe6cc;strokeColor=#d79b00;" parent="20H57iQiFcqCnkmzl_gZ-11" vertex="1">
          <mxGeometry x="-40" width="140" height="50" as="geometry" />
        </mxCell>
        <mxCell id="20H57iQiFcqCnkmzl_gZ-13" value="" style="shape=image;verticalLabelPosition=bottom;labelBackgroundColor=#ffffff;verticalAlign=top;aspect=fixed;imageAspect=0;image=data:image/png,iVBORw0KGgoAAAANSUhEUgAAAOAAAADgCAMAAAAt85rTAAAAilBMVEX///8kGEx2eHYTAEOjnrMAADvo5+oJAEIgE0k/NGPl5erc2+EfEUlIQWUQAEL8/P2em6ywrbupq6lwcnC3uLfDxcPZ1+GWmZa9vr13enfv8O9oYX8aCkeOiKKHiYePkY8AAD80Jlw2LViQi6DZ2tmdmK0AADIAADdhWnsAADDR0tGGf5xzbYgsHFZpxyFeAAACB0lEQVR4nO3dXU8aQRSAYZSPIqBoW6mirUpFtOr//3vekSzJaWgzrHM2z3vNmc0T7iY7O72eJEmSVEHLUSeah8DB5kv+7h8mMbB/lL/ZSceBY8DkAWYPMHuA2QPMHmD2ALMHmD3A7AFmDzB7gNkDjOb6ZxV1Wxw4Xv0+r6ibcWng7HTSm1dTbzA7BLCiAIMxwFoCDMYAawkwGAOsJcBgDHDb42WJHhtrLteDsPWyZeDXbwU6vmq8N7cY9sOeFq0Djwt01VhzcRY+/miYEnj9D8ApICAgICAgICAgICAgICAgICAgIGAHgLsbv/ezsE1VG7+/9u2yseb05DRsVdM/eLfct+aR/vkkbtr86ecCf4QPKBZgMAa4DfCwAQZjgNsADxtgMAa4DfCw5QROnm/CnpuPzwlcDG/DqnqV67+BWbYsAAEBAQEBAQEBAQEBAQEBAQEBAQEBAQEBAQEBAQEBASsD7lwzlwZ4fbdvzWMFaYD7t/PJo84BO3+0BxAQEBAQEBAQEBAQEBAQEBAQEBAwFbBEOzvbm/hj/i9tnwD9871EzesYRj/jXkctAz85wGAMsJYAgzHAWgIMxgBrCTAYA6yl8sDx6vyiot6KXxXd+cu+8wSYPcDsAWYPMHuA2QPMHmD2ALMHmD3A7AFmDzB7gNn7G3D9Mszf5j0GjqadaB4CJUmSpBb7ALJmUgSo2hAjAAAAAElFTkSuQmCC;" parent="20H57iQiFcqCnkmzl_gZ-11" vertex="1">
          <mxGeometry x="-34" y="10" width="34" height="34" as="geometry" />
        </mxCell>
        <mxCell id="20H57iQiFcqCnkmzl_gZ-14" value="Use" style="edgeStyle=orthogonalEdgeStyle;rounded=0;orthogonalLoop=1;jettySize=auto;html=1;" parent="20H57iQiFcqCnkmzl_gZ-1" source="20H57iQiFcqCnkmzl_gZ-8" target="20H57iQiFcqCnkmzl_gZ-17" edge="1">
          <mxGeometry x="-0.1768" relative="1" as="geometry">
            <Array as="points">
              <mxPoint x="480" y="508" />
            </Array>
            <mxPoint as="offset" />
          </mxGeometry>
        </mxCell>
        <mxCell id="20H57iQiFcqCnkmzl_gZ-15" value="" style="group" parent="20H57iQiFcqCnkmzl_gZ-1" vertex="1" connectable="0">
          <mxGeometry x="18" y="508" width="176" height="50" as="geometry" />
        </mxCell>
        <mxCell id="20H57iQiFcqCnkmzl_gZ-16" value="" style="group" parent="20H57iQiFcqCnkmzl_gZ-15" vertex="1" connectable="0">
          <mxGeometry x="257" width="140" height="50" as="geometry" />
        </mxCell>
        <mxCell id="20H57iQiFcqCnkmzl_gZ-17" value="runC" style="html=1;fillColor=#dae8fc;strokeColor=#6c8ebf;" parent="20H57iQiFcqCnkmzl_gZ-16" vertex="1">
          <mxGeometry x="-40" width="110" height="50" as="geometry" />
        </mxCell>
        <mxCell id="20H57iQiFcqCnkmzl_gZ-18" value="" style="shape=image;verticalLabelPosition=bottom;labelBackgroundColor=#ffffff;verticalAlign=top;aspect=fixed;imageAspect=0;image=data:image/png,iVBORw0KGgoAAAANSUhEUgAAAOAAAADgCAMAAAAt85rTAAAAilBMVEX///8kGEx2eHYTAEOjnrMAADvo5+oJAEIgE0k/NGPl5erc2+EfEUlIQWUQAEL8/P2em6ywrbupq6lwcnC3uLfDxcPZ1+GWmZa9vr13enfv8O9oYX8aCkeOiKKHiYePkY8AAD80Jlw2LViQi6DZ2tmdmK0AADIAADdhWnsAADDR0tGGf5xzbYgsHFZpxyFeAAACB0lEQVR4nO3dXU8aQRSAYZSPIqBoW6mirUpFtOr//3vekSzJaWgzrHM2z3vNmc0T7iY7O72eJEmSVEHLUSeah8DB5kv+7h8mMbB/lL/ZSceBY8DkAWYPMHuA2QPMHmD2ALMHmD3A7AFmDzB7gNkDjOb6ZxV1Wxw4Xv0+r6ibcWng7HTSm1dTbzA7BLCiAIMxwFoCDMYAawkwGAOsJcBgDHDb42WJHhtrLteDsPWyZeDXbwU6vmq8N7cY9sOeFq0Djwt01VhzcRY+/miYEnj9D8ApICAgICAgICAgICAgICAgICAgIGAHgLsbv/ezsE1VG7+/9u2yseb05DRsVdM/eLfct+aR/vkkbtr86ecCf4QPKBZgMAa4DfCwAQZjgNsADxtgMAa4DfCw5QROnm/CnpuPzwlcDG/DqnqV67+BWbYsAAEBAQEBAQEBAQEBAQEBAQEBAQEBAQEBAQEBAQEBASsD7lwzlwZ4fbdvzWMFaYD7t/PJo84BO3+0BxAQEBAQEBAQEBAQEBAQEBAQEBAwFbBEOzvbm/hj/i9tnwD9871EzesYRj/jXkctAz85wGAMsJYAgzHAWgIMxgBrCTAYA6yl8sDx6vyiot6KXxXd+cu+8wSYPcDsAWYPMHuA2QPMHmD2ALMHmD3A7AFmDzB7gNn7G3D9Mszf5j0GjqadaB4CJUmSpBb7ALJmUgSo2hAjAAAAAElFTkSuQmCC;" parent="20H57iQiFcqCnkmzl_gZ-16" vertex="1">
          <mxGeometry x="-35" y="8" width="34" height="34" as="geometry" />
        </mxCell>
        <mxCell id="20H57iQiFcqCnkmzl_gZ-19" value="" style="group" parent="20H57iQiFcqCnkmzl_gZ-1" vertex="1" connectable="0">
          <mxGeometry x="145" y="509" width="140" height="50" as="geometry" />
        </mxCell>
        <mxCell id="20H57iQiFcqCnkmzl_gZ-20" value="cRun" style="html=1;fillColor=#dae8fc;strokeColor=#6c8ebf;" parent="20H57iQiFcqCnkmzl_gZ-19" vertex="1">
          <mxGeometry x="-40" width="60" height="50" as="geometry" />
        </mxCell>
        <mxCell id="20H57iQiFcqCnkmzl_gZ-21" value="&lt;p style=&quot;margin: 4px 0px 0px 10px&quot; align=&quot;left&quot;&gt;SandBoxed Runtime&lt;br&gt;&lt;/p&gt;" style="html=1;strokeWidth=1;shape=mxgraph.sysml.package;html=1;overflow=fill;whiteSpace=wrap;fillColor=#d5e8d4;strokeColor=#82b366;" parent="20H57iQiFcqCnkmzl_gZ-1" vertex="1">
          <mxGeometry x="495" y="460.5" width="215" height="135" as="geometry" />
        </mxCell>
        <mxCell id="20H57iQiFcqCnkmzl_gZ-22" value="&lt;p style=&quot;margin: 4px 0px 0px 10px&quot; align=&quot;left&quot;&gt;Virtualized Runtime&lt;br&gt;&lt;/p&gt;" style="html=1;strokeWidth=1;shape=mxgraph.sysml.package;html=1;overflow=fill;whiteSpace=wrap;fillColor=#d5e8d4;strokeColor=#82b366;" parent="20H57iQiFcqCnkmzl_gZ-1" vertex="1">
          <mxGeometry x="724" y="460.5" width="280" height="135" as="geometry" />
        </mxCell>
        <mxCell id="20H57iQiFcqCnkmzl_gZ-23" value="" style="group" parent="20H57iQiFcqCnkmzl_gZ-1" vertex="1" connectable="0">
          <mxGeometry x="500.99" y="509.75" width="110" height="50" as="geometry" />
        </mxCell>
        <mxCell id="20H57iQiFcqCnkmzl_gZ-24" value="" style="html=1;fillColor=#dae8fc;strokeColor=#6c8ebf;" parent="20H57iQiFcqCnkmzl_gZ-23" vertex="1">
          <mxGeometry width="110" height="50" as="geometry" />
        </mxCell>
        <mxCell id="20H57iQiFcqCnkmzl_gZ-25" value="" style="shape=image;verticalLabelPosition=bottom;labelBackgroundColor=#ffffff;verticalAlign=top;aspect=fixed;imageAspect=0;image=https://raw.githubusercontent.com/google/gvisor/master/g3doc/logo.png;" parent="20H57iQiFcqCnkmzl_gZ-23" vertex="1">
          <mxGeometry x="14.829999999999927" y="10.25" width="80.33" height="27.5" as="geometry" />
        </mxCell>
        <mxCell id="20H57iQiFcqCnkmzl_gZ-26" style="edgeStyle=orthogonalEdgeStyle;rounded=0;orthogonalLoop=1;jettySize=auto;html=1;entryX=0.75;entryY=1;entryDx=0;entryDy=0;startArrow=none;startFill=0;endArrow=block;endFill=0;" parent="20H57iQiFcqCnkmzl_gZ-1" source="20H57iQiFcqCnkmzl_gZ-24" target="20H57iQiFcqCnkmzl_gZ-12" edge="1">
          <mxGeometry relative="1" as="geometry" />
        </mxCell>
        <mxCell id="20H57iQiFcqCnkmzl_gZ-27" value="Implements" style="edgeLabel;html=1;align=center;verticalAlign=middle;resizable=0;points=[];" parent="20H57iQiFcqCnkmzl_gZ-26" vertex="1" connectable="0">
          <mxGeometry x="-0.2899" y="-1" relative="1" as="geometry">
            <mxPoint as="offset" />
          </mxGeometry>
        </mxCell>
        <mxCell id="20H57iQiFcqCnkmzl_gZ-28" value="Implements" style="edgeStyle=orthogonalEdgeStyle;rounded=0;orthogonalLoop=1;jettySize=auto;html=1;exitX=0.5;exitY=0;exitDx=0;exitDy=0;startArrow=none;startFill=0;endArrow=block;endFill=0;" parent="20H57iQiFcqCnkmzl_gZ-1" source="20H57iQiFcqCnkmzl_gZ-17" edge="1">
          <mxGeometry relative="1" as="geometry">
            <mxPoint x="380" y="448" as="targetPoint" />
          </mxGeometry>
        </mxCell>
        <mxCell id="20H57iQiFcqCnkmzl_gZ-29" value="implements" style="edgeStyle=orthogonalEdgeStyle;rounded=0;orthogonalLoop=1;jettySize=auto;html=1;entryX=0;entryY=0.25;entryDx=0;entryDy=0;startArrow=none;startFill=0;endArrow=block;endFill=0;" parent="20H57iQiFcqCnkmzl_gZ-1" source="20H57iQiFcqCnkmzl_gZ-20" target="20H57iQiFcqCnkmzl_gZ-12" edge="1">
          <mxGeometry relative="1" as="geometry">
            <Array as="points">
              <mxPoint x="190" y="534" />
              <mxPoint x="190" y="401" />
            </Array>
          </mxGeometry>
        </mxCell>
        <mxCell id="20H57iQiFcqCnkmzl_gZ-30" value="use" style="edgeStyle=orthogonalEdgeStyle;rounded=0;orthogonalLoop=1;jettySize=auto;html=1;entryX=0.5;entryY=0;entryDx=0;entryDy=0;startArrow=none;startFill=0;endArrow=classic;endFill=1;" parent="20H57iQiFcqCnkmzl_gZ-1" source="20H57iQiFcqCnkmzl_gZ-5" target="20H57iQiFcqCnkmzl_gZ-20" edge="1">
          <mxGeometry relative="1" as="geometry" />
        </mxCell>
        <mxCell id="20H57iQiFcqCnkmzl_gZ-31" value="" style="group" parent="20H57iQiFcqCnkmzl_gZ-1" vertex="1" connectable="0">
          <mxGeometry x="767.5" y="508" width="110" height="50" as="geometry" />
        </mxCell>
        <mxCell id="20H57iQiFcqCnkmzl_gZ-32" value="" style="html=1;fillColor=#dae8fc;strokeColor=#6c8ebf;" parent="20H57iQiFcqCnkmzl_gZ-31" vertex="1">
          <mxGeometry width="110" height="50" as="geometry" />
        </mxCell>
        <mxCell id="20H57iQiFcqCnkmzl_gZ-33" value="" style="shape=image;verticalLabelPosition=bottom;labelBackgroundColor=#ffffff;verticalAlign=top;aspect=fixed;imageAspect=0;image=data:image/png,iVBORw0KGgoAAAANSUhEUgAAA+QAAAEiCAYAAABwcxiRAAAABHNCSVQICAgIfAhkiAAAIABJREFUeF7t3U2MJOd93/F6qmeWpkDu8iIojgNwBAOKQdLgCoYjcKXsNoEoCOQsOToktsUVdvYQx44PXF1sORcOD4EVXTi6OEIu7IWWshIg0IibCI4VgE1GWkZAAo0gLp3INjxG4CSyDubO0qI5M11P/v/qrt3Z7q73p177OwAhbdfbU5/n6er61VP1lOfxhwACCCCAAAIIIIAAAggggAACCCCAAAIIIIAAAggggAACCCCAAAIIIIAAAggggAACCCCAAAIIIIAAAggggAACCCCAAAIIIIAAAggggAACCCCAAAIIIIAAAggggAACCCCAAAIIIIAAAggggAACCCCAAAIIIIAAAggggAACCCCAAAIIIIAAAggggAACCCCAAAIIIIAAAggggAACCCCAAAIIIIAAAggggAACCCCAAAIIIIAAAggggAACCCCAAAIIIIAAAggggAACCCCAAAIIIIAAAggggAACCCCAAAIIIIAAAggggAACCCCAAAIIIIAAAggggAACCCCAAAIIIIAAAggggAACCCCAAAIIIIAAAggggAACCCCAAAIIIIAAAggggAACCCCAAAIIIIAAAggggAACCCCAAAIIIIAAAggggAACCCCAAAIIIIAAAggggAACCCCAAAIIIIAAAggggAACCCCAAAIIIIAAAggggAACCCCAAAIIIIAAAggggAACCCCAAAIIIIAAAggggAACCCCAAAIIIIAAAggggAACCCCAAAIIIIAAAggggAACCCCAAAIIIIAAAggggAACCCCAAAIIIIAAAggggAACCCCAAAIIIIAAAggggAACCCCAAAIIIIAAAggggAACCCCAAAIIIIAAAggggAACCCCAAAIIIIAAAggggAACCCCAAAIIIIAAAggggAACCCCAAAIIIIAAAggggAACCCCAAAIIIIAAAggggAACCCCAAAIIIIAAAggggAACCCCAAAIIIIAAAggggAACCCCAAAIIIIAAAggggAACCCCAAAIIIIAAAggggAACCCCAAAIIIIAAAggggAACCCCAAAIIIIAAAggggAACCCCAAAIIIIAAAggggAACCCCAAAIIIIAAAggggAACCCCAAAIIIIAAAggggAACCNwTMGAgoAJ2a/jIneNg11/zrz40Gu+hggACCCCAAAIIIIAAAgggUK2AX+3qWXsXBKZh3I6t9S5Mjuz43a3h2S6UmzIigAACCCCAAAIIIIAAAl0WoIe8y7XnoOz3wrh98t7qzO3BuhnSU+4AmFUggAACCCCAAAIIIIAAAjECBPIYmFX4eHkYj/acUL4KbYB9RAABBBBAAAEEEEAAgeYECOTN2Te65eQwHhWNUN5oJbFxBBBAAAEEEEAAAQQQ6LUAgbzX1bt857KF8WhZQvlyRT5FAAEEEEAAAQQQQAABBMoJEMjL+XVu6XxhPNo9QnnnKpoCI4AAAggggAACCCCAQOsFCOStryJ3BSwWxqPtE8rd1QRrQgABBBBAAAEEEEAAAQQ8j0C+Iq2gXBiPkAjlK9Jc2E0EEEAAAQQQQAABBBCoQYBAXgNy05twE8ajvSCUN12fbB8BBBBAAAEEEEAAAQT6IUAg70c9xu6F2zAebYZQHgvOBAQQQAABBBBAAAEEEEAgowCBPCNUF2erJoxHEoTyLrYJyowAAggggAACCCCAAALtESCQt6cunJak2jAeFZVQ7rTSWBkCCCCAAAIIIIAAAgislACBvIfVXU8Yj+AI5T1sQuwSAggggAACCCCAAAII1CBAIK8Buc5N1BvGoz0jlNdZx2wLAQQQQAABBBBAAAEE+iHg92M32AsVKBfGNVT7HzXGu5Zf056ZHNnxu1vDs/mXZQkEEEAAAQQQQAABBBBAYDUF6CHvSb2XD+Nm+NBovKccB5fOj6z1Luenoac8vxlLIIAAAggggAACCCCAwKoKEMh7UPMuw3jEQSjvQcNgFxBAAAEEEEAAAQQQQKDVAgTyVldPeuGqCOPRVgnl6f7MgQACCCCAAAIIIIAAAggUFSCQF5VrwXJVhvFo9wjlLahoioAAAggggAACCCCAAAK9FCCQd7Ra6wjjEQ2hvKONhGIjgAACCCCAAAIIIIBAqwUI5K2unuWFqzOMRyUglC+vCz5FAAEEEEAAAQQQQAABBIoKEMiLyjW0XBNhPNpVQnlDlc5mEUAAAQQQQAABBBBAoJcCBPIOVWuTYTxiIpR3qMFQVAQQQAABBBBAAAEEEGi1AIG81dVzr3BtCONRaQjlHWk0FBMBBBBAAAEEEEAAAQRaLUAgb3X1TAvXpjAecRHKO9BwKCICCCCAAAIIIIAAAgi0WoBA3urq8bw2hvGIjFDe8sZD8RBAAAEEEEAAAQQQQKDVAgTyFldPm8N4xEYob3EDomgIIIAAAggggAACCCDQagECeUurpwthPKIjlLe0EVEsBBBAAAEEEEAAAQQQaLUAgbyF1dOlMB7xEcpb2JAoEgIIIIAAAggggAACCLRagEDesurpYhiPCAnlLWtMFAcBBBBAAAEEEEAAAQRaLUAgb1H1dDmMR4yE8hY1KIqCAAIIIIAAAggggAACrRYgkLekevoQxiNKQnlLGhXFQAABBBBAAAEEEEAAgVYLEMhbUD19CuMRJ6G8BQ2LIiCAAAIIIIAAAggggECrBQjkDVdPH8N4REoob7hxsXkEEEAAAQQQQAABBBBotQCBvMHq6XMYj1gJ5Q02MDaNAAIIIIAAAggggAACrRYgkDdUPasQxiNaQnlDjYzNIoAAAggggAACCCCAQKsFCOQNVM8qhfGIl1DeQENjkwgggAACCCCAAAIIINBqAQJ5zdWzimE8IiaU19zY2BwCCCCAAAIIIIAAAgi0WoBAXmP1rHIYj5gJ5TU2ODaFAAIIIIAAAggggAACrRbwW126HhWuC2H8va3hRtXkp6+/sWWMdy3/duyZyZEdv7s1PJt/WZZAAAEEEEAAAQQQQAABBNonQCCvoU66EMY16B4e2T3twa6ahFBetTDrRwABBBBAAAEEEEAAgS4IcMt6xbXUlTCuvc+eZ88oh/Zga2iumMbj9vWqhVk/AggggAACCCCAAAIItFmAQF5h7XQxjEcchPIKGwarRgABBBBAAAEEEEAAAQREgEBeUTPochiPSAjlFTUOVosAAggggAACCCCAAAIIiACBvIJm0IcwHrEQyitoIKwSAQQQQAABBBBAAAEEEBABArnjZtCnMB7REModNxJWhwACCCCAAAIIIIAAAgiIAIHcYTPoYxiPeAjlDhsKq0IAAQQQQAABBBBAAAEERIBA7qgZ9DmMR0SEckeNhdUggAACCCCAAAIIIIAAAiJAIHfQDFYhjEdMhHIHDYZVIIAAAggggAACCCCAAAIiQCAv2QxWKYxHVITyko2GxRFAAAEEEEAAAQQQQAABESCQl2gGqxjGIy5CeYmGw6IIIIAAAggggAACCCCAgAgQyAs2g1UO4xEZobxg42ExBBBAAAEEEEAAAQQQQEAECOQFmgFh/B4aobxAA2IRBBBAAAEEEEAAAQQQQEAECOQ5mwFhfBGMUL5owicIIIAAAggggAACCCCAQJoAgTxN6MR0wng8FqE83oYpCCCAAAIIIIAAAggggMAyAQL5MpUlnxHGl6DMfUQoTzdiDgQQQAABBBBAAAEEEEAgEiCQZ2gLhPEMSLNZCOXZrZgTAQQQQAABBBBAAAEEVluAQJ5S/4TxFKAlkwnlS1D4CAEEEEAAAQQQQAABBBCYEyCQJzQJwngCTsokQnkKEJMRQAABBBBAAAEEEEBg5QX8lReIAeh/GDe3Y3bdycfWepcPLp0fOVlZwkpOX39jS8N/wiwxk+yZyZEdv7s1PBszAx8jgAACCCCAAAIIIIAAApUKEMiX8PY9jIcB1pidJbu+9CPj+1eWTkj5kFCeAsRkBBBAAAEEEEAAAQQQWGkBAvlc9a9CGNde5Tyt/vRXxiNCeR4x5kUAAQQQQAABBBBAAAEE0gUI5CeMCOPxDYZQHm/DFAQQQAABBBBAAAEEEECgiACBfKZGGE9vPoTydCPmQAABBBBAAAEEEEAAAQSyChDIRYownrW5eB6hPLsVcyKAAAIIIIAAAggggAACSQIrH8gJ40nNY/k0QvlyFz5FAAEEEEAAAQQQQAABBPIIrHQgJ4znaSr3z0soL27HkggggAACCCCAAAIIIICACqxsICeMl/8CEMrLG7IGBBBAAAEEEEAAAQQQWF2BlQzkhHF3DZ5Q7s6SNSGAAAIIIIAAAggggMBqCZjV2l0GcIvq+/al4bZngxey1P+ZV95IbScHnx1u2SB4Ocv65ucxxruW993o8+vI8u+DS+dH1nqXs8x7/zzm9mDdDB8ajffyL9vOJe5cGg4DG7yWqXTGf/HM9fF2pnmZCQEEEEAAAQQQQAABBDILrFQPOT3jmdtF7hnpKc9NxgIIIIAAAggggAACCCCw4gIrE8gJ49W3dEJ59cZsAQEEEEAAAQQQQAABBPojsBKBnDBeX4MllNdnzZYQQAABBBBAAAEEEECg2wK9D+SE8fobKKG8fnO2iAACCCCAAAIIIIAAAt0T6HUgJ4w31yAJ5c3Zs2UEEEAAAQQQQAABBBDohkBvAzlhvPkGSChvvg4oAQIIIIAAAggggAACCLRXoJeBnDDengZHKG9PXVASBBBAAAEEEGhO4PFzm2ef+MTmUP87O9x8pLmSsGUEEGiTQO8COWG8Tc1rWhZCefvqhBIhgAACCCCAQD0CGsAfO3dx39rJ94LJ5DX97/D9yV89/tQzI4J5PXXAVhBos0CvAjlhvL1NjVDe3rqhZAgggAACCCBQjcDj5y5uaQD3rPfo/BasZy8fHU7GhPJ5Gf6NwGoJrPVldwnj7a9JDeUHnx16Nghezltaa73LB5fOe6evv7GVd9k88+v6dTu6vTzLeZ49Mznyxu9uDYcPjcZ7+ZZlbgSKCUhbHWdZ0nj+3sPXx1ezzMs8CCCAAAJuBDRoH70f7Mg5QuwK5XzjyaP3J7sywzB2JiYggECvBXrRQ04Y704bpae8O3VFSdsvICdyFzL95wVn2783lBABBBDol8DR0WRLesHPpO2VxPULEt430uZjOgII9FOg84GcMN69hqmh3DP+i0VKPuspHxVZNs8y2lNujHctzzLTebWn3GpPOQEoPx5LIIAAAghUIPDEuWe2H3vqol32n06rYJOsUgSsNcOsEMfH3kbWeZkPAQT6JdDpQE4Y72ZjDMOqtYVvnyWUd7PeKTUCCCCAAAKrJGCsZST1Vapw9hWBggKdDeSE8YI13vBiGsa1B1mfuS5TFEJ5GT2WRQABBBBAAIGqBYwx46q3wfoRQKD7Ap0M5ITxbjY8V2E82ntCeTfbAaVGAAEEEEBgJQR8f5xlP41nbr/17d1M82ZZH/MggEC3BDoXyAnj3WpgUWldh/FovYTybrYHSo0AAggggEDfBcKQbcw30vbT9/yttHmYjgAC/RXoVCAnjHezIVYVxiMNQnk32wWlRgABBBBAoO8Cp075W8bzXo/bTxlA9soP3tzV157xhwACKyrQqUB+59iOrbVPFqmrwbqp/P3QZYKnjuhd9Tu2i7iVXaaMSZ5t1xrKPS/1avdi2aejr7+3NdxYnMYnCCCAAAIIINBHgb3x7ju33rwxHHiDT8ut6dc0nIf/GfOlUw8MPnzr5o1RH/ebfUIAgewCa9lnbcGcxuzI6NwvFylJcBzoqN5bRZbNskyZ4EkYzyKcPs8slHtVXtiY1fNQBqVLL9DcHMbY3QdHr+/nXpAFEEAAAQQQQKDTArNecHrCO12LFB6BagQ61UOu7682vn+lCEWVPaiE8cUaKWtCPS+a8gkCCCCAAAIIIIAAAgj0S6BTgVzp2xbKywbPKntzm2qqLkyo56Zqj+0igAACCCCAAAIIIIBAXQKdC+QK05aw5iJ41lXRdW3HpQn1XFetsR0EEEAAAQQQQAABBBBoQqCTgVyhmg5rLoNnExVfxTarMKGeq6gp1okAAggggAACCCCAAAJtEOjWoG5zYhrWDj479GwQ5B7orcwAYFUEzzY0hjJlqNKEei5TMyybJKDtNph4Z+V4sGG8YMNa84QMshgeF+WzYxmI7y3r+fsyIu7e+pq39+BovJ+0PqZlE9BXWL577J0NrHfWM94jxgbyv2bj7tLWvmuN/1/033LVePzw9fE425qZCwEEEEAAAQQQ6JZApwO5Utcd1qoMnt1qOvdKW4cJ9dzV1nF/O7HH3iN59+QhCcJmNH4n73LL5tcgeGfibcrrEz9jrP3E5Ch4MJpvOm6+1SB+90/+/y94XhCOqX945HkHl87/2Hj+V9fWvJ1l4TwKmsu2Pf9Zlv26c2k4nF/u5L8DGyRNPjHNPJK2rmhm2bf9ZfuWcUOxs+kr/8Rw05jgNw6Ogo/cnVFwQ/KT8OG/g4/r/8gevnD7ufOeBPZvyWuCvvrwwNtd1h70OJS1fRHwY6uJCQgggAACCCBQs0DnA7l61RXW6gieNdd/6c3VaUI9l66uxlYgd7JsSfjNfSeLBLDvSxIbli24hsHjY+/qnaPg1yT8hSH8RO7OvHrJjB+0XvC8BMvnJZx/V8L550+Gu2mvb/BalhW+e+w/LfONk+aVwJ1pXUnrCPfV2iflUkOmdR0e+y/KIttp68w6XS8EiNkXDo+Cj03LknXJufms/aTsxyfvBN7v3b40/OJpuShyMpjLqy2/LPUTbiPDn9z0UO/f2eHmxtHhZCjt+axUSHhngJT3yftKYbw/N9bbl3n2Pd/ura8PduUdxvLv9v498YnNoRcEQ7lwclYucj0i36sL86XVdy7rZ/J9Hhvr7w0e8Mb6bub5+bry77AujyZyYc8Ml+5zVI/G7Mm3b2/91ED3d78r+9eGcorxI5P3vaE1gdzBZIdapoW2dfL7YuwYZ7c1F7VzL5Bjlmc39NglvyNn7m6lg8erk0JZ2pi8N/62foetMe/I3Vp7nu+P3/r27titdL1ri/Y7MMEw/C2aq1e5S/D7Vn6D5A7B8a3v3NhxXbroN0PvTNR2ZY38r/Uend/Oyd8NaXf7ff9+135SMg/u8t960l/k9nUtQ9q7wOsMni5N4tYlJ7Tb0gP1Qtz0k5+feeWNpe2kKRPqOUutJc+jISlz2DP+i2euj7eT1xg/tWh9yXfyhw+v+R9b1hsav7X7p2iP9YEEcePZ35aTup/Kulyu+Yz5/dNr5l9oOfO4+sZ/Oq2nVnqG5Ry05r+S9R2VVi+CHB0HX8sRkvPtqPF+Yoz/m3qhThc8uHRhTy88ZFlJ3DEty7J55tETHwluW3KysbUQvjOuSE+OZNYdORnRcN6KEPvzT21uTkwg+2Wfzbgbi7MZ8w35Xu7eunljtDixuk+0TuTinJyELv7JDSfv3Lq5KyF6+d/j5y5uyZSrReoyqseq9lfDk+zXxvKSy2nvJNiSk9rLy6ZL6LhmBv5o2bT5z/QOmiovLqixhIHNom0ri3OZNjDvkfXfj5/bPGv85XeIieleFd/tMPjE/CWFyrCd6zFrycW1mNXd/Tj0N95ILiaOqtintO1nmV66jYUh3dv1jL+TdLzIUpa885RpR+EFlveDbdnm5n0XVhIK8fabN5ae/ycssnSStkU9BuXZ9rIVdaF9LSt3ls960UMe7WhVPahNBc8sFdjUPE2aUM9N1Xr+7UpA3QmC4Pm8S7oI4xqO7xzZr8mp6IcqTbXW/urBsX1WtvdLefezr/PrBT/pEc90wa+wgfU+YG3wsgTxf/LwmnnuznGltZyrmOEJ/2FwVU5+rkqp7vUo5VrLdOZZ+HtZ1rUjJ5JXqwp0WYo2PZH1tid28qh2V5b6kzAvq3j2sXMXt+WMb7uu/dIwHkwmry0r+6xHZjg/TU8mg2Aykrp4dH5a1n9H9VjV/kp72wqsLfSd06BuJ5PLWfblODAvynzbWebNM88T557ZFiO52KE9sMUbVxbnIm0gz74snddOdmS8kgvLph17g6fl8/GyaWU+i2vns3UuBC0Ne3LlZkcMl5YzS1lCf+u9pMFP6nTnrZuvbmdZro55ouPX9Htcoo1N7xK4LFaXH3/q4uueGchxOf5CntN9K9iO9Pt1+P6k0PGhTPmjNiVtsXCbOrn9qH3Jvrz0+LlnvrR+yt9u64WfvG6dHWU9bkc1rBnfvxI3PelzqejLchvq6OQ8TQbPpLI2Oa0NJtRzky0g27ZvX7rwVemFbySMayDUOwDkRPND2Upbci4Jh9PthVeAV/YvvCPh0vn/lvXuGxdQcgL/qTvHwdtyEvi3XKyv7Doe//hFDeL7Go6y9kJk2aauS36jXpYTwLH2dGRZxtU8elKl29Xti/OjrtYbrkfWp+uVoLqf1KPndJs5VqYnsmGwcbXfs/1toh5z7HZts2qda927/r5E7Wrm/EhtO9TRDYVh1U6+JzHVTXCS45XWqax3LwxlDf6Fxy8pRxXHL/VSNwmHO3ohtsHdXLpp/a3QfS96sW7pSjN+OL3I5q5NzW9Wfvuf199avWNrfloX/927QK6V4CqstSF4tq1RtcmEem5b67hXHg3jcsvhr+YtoTxj+lbZ29Sn2664dzZmx/SiXsyk3n+sxwYNxmKQ9TluZyayzZ+u7eJLTKn1ZCwMrYH3kssgPr85PQGUk5C9uk5C9AKDyxP1+f25+28Jqhp89SQudp6aJzz+1DOjqk5ko3psOqzUTHrf5jTEOL3YsWRnZs77q+y8hOX+epB2HobVCv5kvdJjHow18Few+tRV3j1+zY/XkbpkvhnCcHg4kf1s9uLDyVJrWfS3IqyDmv+qPHae3BX9rZ14k6/rsaTmXXS+uV4GclUqHdaeO787ObJjuXyf+3ZDud322unrb2w5r62GV9imMB5RUM8NN4olmy8Rxr8ptx7//TLPjBfd9pLd4KMcAnpsCI6CmxqMcyzWm1n1xOfwcLLnqncpDebeSUi1J7l6UqUXGNLK43J62Ks2vQug0d6mcN9jnrl2tb/hhZswrLTnJN7VviWtJ7x4FfZY2tx3UCWtN26aOk97Mav9vsRtv82fa5Cpo51r4K/rImLkXffxK7r40IY7fcJjihxbqrw4HNeu6zh2zm9bjyW63fnPu/TvXj1DPg9f6lljebatyHNMhPH5WkgfMG9xiXyfUM/5vKqcu3Ag1oHRrr/+mTJlK7ztMhtlWS98ldxx8E0Jo3dfIbdKLNGJj+xz5ou30ci9Our4SatwpHIddTZjj4ae5Eqw8ap4/rrISVX4DLaMLC7/+060X9IuHpG7ZeSW1bkRmhMaSdirKb1NEtyGTTwfGN6mbpcPgHa32LMRpufrUOpkwzP2bOY6lLBo5MRZby1tYl8TqqGSSRrGtW6z+mghou/LQtuKRmnOeJv1LBS+I+3rbvusZCc7stLpberJF0XijlVhO9djVUZ7JQm8YCTHy2Edz1s/du6ZXQlpch6f7S+ujenSsh4Z7V/2N8NjK+HFH7nTR2yvVHFczrI3eiyRnvH0MC4Da0Yjx59cr1y8kuOXvN0mh1+0fHhHQpBy7JzNnGyev33phSW5wCQDc756NYtT2+bpdSBX7DJhLW9lEcYXxeoyoZ4X7ev8ZDqauf29Irepy0nW758pGcZnI7nnvkW+TqO+bkvC+B/IydlK9oxnPvGRyg9PPmT0Yc/zR2knpOF6w9dqeVfTTgKrCOW5wric1A2sP/rBm7u7aW18dvFCT5ZSR/nVwKbBTeaVMF/fXziA22T54Edah/KbtrN2ytcRpPeTSjULnpsyj9zyn3zLqJ7EH70/Ub9h0jq7Pi1vGBfva1lHstbeVwl82q4uJzlpKJTfqe2keVZh2uzYtbOs4ynPsUqtpvYTHcDyQpKdtnPjTUYyT6Xf6fD4lSFMTgNh9tHS8xyXPWtkEM7NvbRjfZJX0Wly3NyVulh6gfjEMWwn4QLgWLad+5n48PsdjuIuW4/5y9u2dDVZv9s6r/aUy/zjLL9HMUVs7GO5kL0af0VfvZRVp67gmbU8afPlee2ZnErqexiXfrmTttOECfWcVCP3puV5PZecECW+9mzaQ2r/qxwIn8i29RNzOQjj4e3Sx/ZN2X6h15rJQfA9ecfot6Wd35SrxeOT+xBYOXEw9u9Jr+U/kJPqD+bev4QF+vDas3zHkUUMOUb8WD79ppV3U/tG3vE6+5Of80fkP+ktDv6RuDt/Jt3Fa8/yhAvfmBclxCWdAC3izD7RHgd5D/B22q2HA2/waRcnIbPe4RdiCzSboL3h6w8MttKC6bL1TO2C7Sy3LGsou/Xmq1vL1lPks1ngfm3ZsrpPcT1h0hNeeETfrHUo34fKetWS6lXbZx2jYWe90KN1vv5AOHry/rJ6SvpMQ9PhYbBTpHdP16tt4NabN4ZJ2ygyLRxfIiaw+oPB00mvISuyPV3msacuxiajsK0vK49cYDt1ytfv9Tt5tzsLTqO0Y1WV7S2pnZ/cn1kbu1pkP3U94d0F+raBhF5zDZ/Sjp3e+ZLWjrwgkFfaLn/bQpljWJa2MO0dj3/EafabsVnUPOt3uwr3LPtfdp7e95BHQFX2oDYRPMtWfL7luxHGdZ+o53w1W3bu2e3K35XQ9JHc63IQxnWbwXHwZdl+7jAuB+0feb75/MMDbzfhufVxtF8Hl4bS2xV8voqAGGcnP2DfkTsIHoqbLoHmybhp931uzF/Luv4k27zefpb5pmNKFBs8T46Z3zWe//mU97Brj+F2ePfFkbflmeBfycnPB7KUrY55jg41UCb3fMp+yjvEB1tvlXglzq3v3NCeit2w1yNhexMzkd4u6e0p8ZfUO3xytfI+5c9puYpuanZCdlW2tyvvppXenPjfGO3xlBP9XRcXG9LKGwaUJRFmGpRfHaUtHzddraS3bKy3pifva/g6scLbidt+Gz6f3R59OaksYe/dwN8sE05nIX4zHERMeimTvJPK0vdpy8L49Hv9auFMkn7QAAAgAElEQVTvtX5H5Vh1Nu1YJcexqzJfoQuUSfWS5fjloo1pGfR2dD0uy8UfveNi6a3x2vbqvPNlequ598K8kat9nl/vwr/l3fULn0UfyIUeuZVczqGK/538bksbejluTaG7/D7L9Ktx87Tx85UJ5IpfRVjrfxjP32ybNqGe89dZkSXaEMZnd0Tk70GVXv/T18fbefZb5tews6vB3HrBK3WEw9OvvPGJpDLefu78kviwuIT08P93GWhyuDil+Cd6ISTv0noRRK7S/0pKEL9vtbOLJTvS3kYHR8HvysRfz7td1/PPTvwSB6QKewNODQr3Bpwss56IyMnfMO7Z2yj4l91Pfdd20jr0xE7umBne+o6bd+5q8NJej7j9isqitxnrfEV7VpL2KW2aq15rvXVV2s2mPl8au03pbdNexjouPsSWoYIJUnd6K6sEvfjDlbZheaewfl/2XRRBA5PeMpx2EcTFtvqwjrIX2SIDrT9x35K7m2IvPoWB6WiyJcsUDv/LzLMev+S4s7ds+byfzY5Hm0l3fuiFD704VMvz5HIn1fx3LDpmu9rnOCP9jsu7wZd2EIQ91nLXRdyyeT+ffrcvynWQhFAut67PLvrs511/U/P3dpT1OFANa0XfUz6/zqaD53x52vDvtphQz9W2hjJhXNtI2WfG7+5dYL+QZ08lJL2nt4qfyRnGT25Dg/npNf9nZD9+mGfbfZpXH3nIe6eAej28bn4uTxg/aabBXG41/w09fms9Nulpg7A3OvZPw4Xe9uoyQOq6JOAPdd33uejtvfJ52WcVw9eNpdx+GYbxEr39y8Di9uvkvNOeJg109f7prbUuT6T1AoTeNpq0F/ocdNL0Lk7TMJ7UUz09YR/o92Xf5f6FbVXabBhK+IsX0N7LEne8zK84dPdTntNP6k2dX2GGfzd1/NKi6SM1egE2tphyp4YG1tjpjibMf8fuXkB1fMxeVtzj44RxAWTsFJe/haG5XHBLOpYm1seyHWjBZysXyNXcRVhrS/BsQRu6W4S2mVDP1bSOUmFcwpSrVwKGveOe/VDWvQzD+Lp/rmggPLkdDYfh+9JXNJTLHQL5LoRoGFcvcctaX3Hzhd9r438qbnrVn09vvU24VV1G39aAXEU57obXWcAIe7XkZLDsyY6eLOptpIllNvaq6zAebW9a/oGc1MYHJ/muX9Ze8sQyupwo9VjFc9XSU7SdtJ+yC70K5FpnWneJVSOhuWwbjlu/tlm9DT5u+qp/rm1Rnxl37RAGfPkOxa1XH79xFVKzHL98z5deajc948v2ScfTiPtea1A+PgySj6/LVlrys6r3OWvxfOuPs86bZz49ls63MamDa8YMPjq7IL6fZ31Nz7uSgVzR/YEOIBT/4990xXRz+/JaG3nes01lp57d1oY+N3xwZP+3/JjmfmZcezY1TDkrUc7ecekp+cxDo7F87938RaFcfhB+4maN3ViLtoE8vePyA/kjV2E8EtKLKq7udMqrLrcgbict4/vhQGelLzzEbSNctwQYHQjKVa+W3j4637tycvt6kuOyp3jZvmXpVZuO4LtsafefaT26X6vnzdrGbty6tR5qvfAQVxBHn6fVWXhRqcKgpLuhdybo3Q6Odqlfq5Ge7KqOV75nRklYib2qSQvOTdOwm3j8krtSqn4MRAz35QL9TlyxUy94xi1Y9HO566Hqfb6vaDKYXFxR7aCa1wxqu5WOlm3drv5GnXpg8GG9QF318SRuP8t+vpKBfDoYkR0XGTk8Apcv1+WDS+dHZSugT8vrAFN3ju24LaGcenbbusLRzI+Cm/K9iR1kLG6LrsN4GApz9I5Lub48ewY8roiFPtdQLoOTPVdo4Y4uNDm2v5Wn6PrMuIue8fltTnvKzTfnP6/y3/rseMpt3dfKDEiVtex6wuFyO0kni9rrIyMF19K7oxcY5ATr9TiHWS959Rd9tXdcQlxcOcp+Lj1XsYFc1y1BZaPsNtqwfNhzmdQ7Ls6uLiql7a++5WC+Ny1tmb5PD7/b64NRVftpU9q5DkLmYtuBZ7fi1hPuo/ak1vCnd9Qk9ZKHAw3W8KdlqOKuh6SiW2MruwidtF29UBwFcb0okjRv26etXCB3EdKiSiWULzbvtoRy6nmxbsp8EoVx6R18MO96XIdx3b49ThjNc66AcoL/3ul1/3fyljvr/Br0JXTWGgyzlq2K+Yy1m5nXKyPpu3hEIG5762vmN8X+b+Kmu/5cRgTfSlpnXcE1qQx5p03fDe49Grec9vpU1YO2bJtmMNhe9nn02WwwqKRZSk+Lel1KryhmBYMH7n+94vxsroLK/Hrr/rcM1pd4rBjYQS0XenS/T/am1e3Q2u1V8GzvyX0NHxdIuBPVWFP64lrqRdKaj19y0WcUV9/WM4nfh7jl8n5e9zFbyye3ie/FldMG1Y6L0fUgHrmtVCB3GdIiQEL54lew6VBOPS/WSZlPZJTasGe8LWFc90WeYf5M1n2yxv9iFT20J7evwTBrebo83/TOhOwXZU6tmX9Z5f4+OBrvy0nOv65yG3Prjj2h0lvm6gyu7vY5/iKDnkyHPYs1/oUDnyX0kntB9c9YyxgAu1XucthOEp6vdRFUqix/1nUnBhDZ/1pvqZVChwNBJQTErPvVn/n8UfX7YmODmottJ4W9Jo5f0hsff7yMeT2aC4eT66j7mK3btkHCbekygJ+r8QJcW7VpfSsTyKsIaVFF9j+U53/WvqlQTj27P7xIEH+2TWH8va3hhnznPph1T0+vxT/XlXUdafNpMJSr0t9Nm6/r0yfHOcKQ9I6rS9X7fGotvkfC5ba1JznpOUV5rjv+RMxlQZyvyw4TVrnbyEWGxF4m70KVJ3c6in0d+2ysV/l3I6Fe65mUEECSnrettHAJbavS7bZs5RpWa3nW1phqA7mXeMdW7cevsLc24WJb2KNf4V9TF4aT7obQ383paw8r3PEerHolAnmVIS1qA30O5YN1IweQ9ody6rkdRyS9RbyK29SjvTtKer3GPIGEwqp7x+9u0vi538s9X9z2/9uey1pGOTH491nnLTNfGPqN+VaZdWRa1kyGsfPps7AVD0wVu+0SE2ajEy99d6yuNu1Z5xKbTlw0rYfa1WBQywthxss/d/upNeYdt2ts19rSgoc8u1zpXQjxGnX0CsdvvS1TrEl+bMJVOeV8oLJ2Hl6YS3hVY1PHL7nDZRzrlzD4WewyOSY0tc+zIsZ+p3UsCX1fe5UXU3MwtXLW3gfyOkJaVLN9DeU6MnXbQzn13I7ji4ZxfbWY09HU53ZNeuvPZt1beb74D7POW3a+hwde7I9R2XW3ZXnj2cz2VQyiF+tga3iGPzCx+554AhZb6OYnpAXbum8pjkRmz/vGDu7mVXhSW9UreuZrW06+9uY/69O/k56Dn92FsN/E/ib15DVRnqa22Yf2l3b8ShuroTJ7P/42fckJG5VtV1bc2D7LtuX1gqOkfdNQfng42atrcLuksrRx2lobC+WqTGVCmvxgvC5fnAt5yzIL5Z6rdy3n3X5V82soF8/h5EivqtozebYzvX3d09HXh1X0VlLPeWqj4nmNec3lq8WWlVZC4S9KKM/0tz6opxdAC6Nt+/alC3/qWfuzmQrXwZmyPypg/keduzdY98ZybKr4z27EbsDoWzu695cYmpKe465hV+Vi2lh+O5b+Bgc5LsrlLWpVr+jJW47Oz2/Nho72sfTPVnsb89Jt3vdhGJiWtq30ZXsyh1/Nu6Fr1Um6MCd3LWlglzs1ai2SbkyOqwnbTPgdSVgqy6S6HreJK4uO//HYuWe+IQDPxs2jdzTIUeFl6S3fkXl2PfntlDuixn0ZmC12vzNM6G0gLxnSrmmgPvjscEsGjHg5g+N9sxDKF8WqCuXU86J1k59IPX/q4NJws+Le0Z/JtI/yfvA6nmE+WRa5WPBt+bHpZSCfftckCmX5M+Y/ZpnN1Tx6Eej2c+ddrW7peqReY0/gjT/YX7pQyz/UwcOk1yKmlKbRfZJyxW5fRvp/JKbQpT+u8nVnpQvXpRXY+LtpJDjE1m0du5h0saeO7bONGgQk+AWTyWs1bKk9m2j8Qpfn6evWtBc86VECBZuNx3JZ/s/lw/cn3mNPXZRH76UjVB7lie7eMNbf0wuka2veXh3jejRdkb28Zd1FSNOKCd9z6/tXilQSt68vqrke6I16XjRuwycyAvorVb6LXuJDpvegyzPMf1y3h7x3db/ubda1PXnVXPYQZKt7bjB2f43509hpFU/QE4aKN1HJ6pNun2w8NCVc5JDnXzcqAWGl9Qg03Dvb1DuT68HNtpWuHrNO7p2cUw6z7W175kq6sFu2lE0fs7X808eNBptF3mYQ2kjvemDtC/rfxJt8XS+qSGD/K+lRf0d633cf//jFq+GrOnv417tA7iqkRXVNKF9s9W14ppx6XqyX1nxivQ/cObavVFaezLeE29reTx3taxt+ECtzz7Fi39QfUOXq+rs5iuh01u5evY+/fbLp0JLyGp1HnVYgK1spgaR3Jq8KRHePWatSQ/n3U3uU8y/lfgkdp2H9Af+s3kLvau1hj7qEdfldeEkeCfjeY+cu7ms479Mgcb0K5K5DWtSQCOWLX6kmQzn1vFgfbfskunW94XLVH8hX4VVGDVcqm69HoOnQ0sio9QmvK6pHvU9biR8EsU97yb4g0BaBNo1/oc+E37p546xvzItFestTTfVZdAnn8jq1/SfOPbPdh2Dem0BeVUiLGgWhfPHr0UQop54X66Gtn1R963pb95tyIYBANwVW4t3gNVXN7BnRmrbGZhDohkAl4bTFu/7WzVe3pbd8Q4N50vvZi+6CHmf09vbp6O3dvpW9F4O6VR3SooaioVwGevMY6O3eV6fO0dep56KHrIaWu3fr+i81VIKfqnu78gxU9ues6y4c20Mgh8BsBPZxjkWczio9Hhs62A9/3RQIB2hKGAixm3tFqbsiEN4u3cRYJmlADTzOlVakqqfPHo/Ylu1sh89/m8nQCzwZ/t6cdXbhLhy9ffI9eaXaFemZH1W9T1Wsv/OBvK6QFuETyhebYR2hnHpedG/iE/mR+6GcZP0d+aH7QJbtVzHqulxh/pEcxD+Uvn3TRCDv5WAj6db3zxHY8F3x47zLMX/dAjqS+vJXi+kI7HWX5uT25JVFG3HbX7VepjgHPi8mYINJbNsqtkaWaqHAzq03uxnMWmjprEizR5H0WfcdXaleeNVjvV4Anr71Qzo1Zm9oKHJBTwYqfVledbffxbdldPqW9bpDWtQiuX198btZ5e3r1POidxOfaBh/eM3/mPH85/Js3/mt68b7f9m2b/92tvnczSUH1EZDjLs9WVyTWcsxcrqp30Hf4rBY6no+kROAYT1bcruVpEEI2323R/geaf46KjC7+6Kx0ssFnY3GNs6G3QmY+PfZU8fumKtckz5rruH51ndu7Ojt7bduvnpVLqQM9b+337xhTj0w+PDAG3xaXlX4pay3vNtJsNvFZ8o7G8ibCmlRwySUL35Fqwjl1POicxOf3A3jo/E7+o5xOTh+M3M59Nb1o8DZe6klKPxllm3LldIPVvn6tWVlkGeZPrHs8z58pt/v7Pthz2Wft/yc720NN8qvJXkNSSPGmkn9FyCSS5ttauJI6gnvkc629pJzBcGw5BpYvEmBhLDkWbPRZNGSXvfXZLnYdj4BeSzinbglAul8jZvG590R0MD+gzd3dzWov33zxoY/GDytj8Mk7YHeBi+DvYU98F3662QgbzqkRRVMKF9s6i5DOfW86NvEJxK+3wp7xiWMR9t/eM08J1crf5K1PBKiP377ueHVrPMnz2duJk+/N/XOsTfMOq+b+ewvuFlPS9eSsc5NzRcmjibV17P19Pbu5X+B6WZ4TB5JvdlRspNOqOWYNF5eE3zaGgFjY78v8pjEsMlyyoWoRrff5L73advJr/myBPI+VfZsX8LedOk9N773uaTdk1B+WW+HT5qnbdM6F8jbEtKiiiSULzZpF6H8zqXhcHJkx/LDfWZxC8mfSE/WtdPX39hKnivf1FWuZwki/+FkGFc5/bfv+bkGazPG/q6Lnky5Opq5p1bmHear6eJzH1wabhZfuhtLiucPspRULsA8qMfqLPO6mEduV/+HLtaTtA75sUxod908wV9bi98n7WUIB+Bp6E9GPB/GbVrKth83jc/bIZB0sUd6qJ9s6pbS8CRdBoBqhxKlKCMweCD++KV13LVAVsZi1ZbVW9zDkdsT/o6OJp06J+tUIG9bGI/awSqHtbjvQtlQHtjgtbaEcep5eS0/fH08lilfXj518VMJTT91dBx8bXFKvk/WE0LE/JoCL/hn859V9W8JCf+0qnW3Zb3W8/8ga1nssbeVdd4y8+ljCdIjX/0Pr++P48o5CxgbcdPb+rmOfpt0K77nBbXU4bzPzz+1uZk0+u76qUFsXcyvi383I5A2qNLRYTMny107SW+m9rqxVb2dOem5Yuq6G/VYtJT6zHlS/VtrhkXX3cRynQrkwbE+E5C/x1T6827LLbdXqwQmlC/qlgnli2tL/6SKnvH5rYb1bJKfX5lfJvq3nLRfrrPXMK4cLj8/ve7/jo56nnWdYvCxsreuPzga70sd/DjTNuX5dXlV4VameUvMVFsoLFFGF4vKD8Y463qsDX6tjmf470w8CW/eg1nLVXS+tIBxfNhMeC26P/eWi7/9W0Jx9Rc6luyAXEiL367x/jw8Eeev9QKJz3raei7YLSA1td2FgvCBCwEZmXsctx4536j0vD9uu3xen4CcC0ouXP5nPLuxfEo7P+1UIJdQvSnPjn0/P6U9c+fYjqs+OSSUL9ZMXaG8jjCue3dw6fxIDvIXFvc0/RPj+1fyDYyVvs6m59Bb1+U7+St5yuHo1vXsg8oF9gt5yldk3oNj72odobBI2Vwuo3dFyEn2e1nWqR7qkmXeUvPUUL93y2fMN+LKGnh2K25auz/3R7Hlk9s+5b2ute6X3maqz//FlUkuAO7GTePzlgn4XmxdyfHhQt23FOvbEPRulpYpUZwSAvLoXGwb09vWu/oGjBIkK7Vo2qMxXcLoVCDXk38ZTGpYJJTrK3EI5c00zapDec1hPPZEMUlXw7hesEmap6vTmrh1XV69ltlSTu4/VLZXPqlu9Ll4uRL720nz9GmaNdkDkbHBb1V5IfT2peG21m9dvlLPiSd/j3/8YvUXIBzvbPheWOl1jlutBKftuGlVfC6j46ZsL/t3v4rysc7sAuvrg1HS3IeH9Y6EbCeTlLaVVFqmtVFAR+CWi3S348rWVJ3rYzf6X1y5+NyNQNI4KG62UN9aOhXIlYVQXl/jcLmlqkI5YdxlLRVfV3jruvH+b9Y1lL11fdpTm/1WeUe98kt3T5+L1+fjl07s4Ye+Z/5t1t3SXnK5EPpK1vnzzKePf9R9IeTWzRujpJM/LzDbTQ1Wlcdufl6p09H8Z3f/rb3kNV1o0EHkEnvHjff98AICf50QCMco8My12MJa+2xdPZjTcQmK3d0WW34mtEPAeKO4guidGA3c5fOIPHYzmniTrz927plOvhM7zjPtc73r5fGnnhk9du7iftq8TL9foHOBXItPKO9mM3Ydygnj7WkH4ajra/6n8pSobEiW0d8z34o+G1DuP7vurb196cJX9eJCnv3u+rx5L4aI/ae0J9vlfms9ypgi32ziQkjSM2s6EJn0+o1c7mvcup4498y2qzCzdsrfSbvQUPWI69MLGZM0u504Dz5vp4AZJN/REASTUdUXsXT9GpDaKUSpygqsy/ErcR3W7FTdxk5u/+j9ye7dQSnlopPc9bPf997yKIgfvj/5s/Ciqj4uIL9RifXiYOLxcfz75hPHsHCwbder6GQgVwRCueumUM/6XIVywng99ZVnK+Hz8cZPfA3FyfWVHXX99LonvZXZnmfW7Upw/sid4+C7rkK5hnFZ6a/mMerNvL75fK59scELrh4b0PoL69F6P52rDI5mTg2v2utX8YmI9vgE1r4QTCavudjWbLT12JPa6clltcFJTlp3Ep/vldvq9Q4FR9XIamoS0MEQE0+M5cS9yotYGsRkRPfx3YBU036zmfoEdJBHeZT1S3Fb1LrXNhA33eXn2jusvfIn16nb72tv+UIQP7Hj+htV9YVcLwiG8fVn9uOntW9KZwO5UhLK29egspRIg5vxTeFnLQnjWZSbmefM9fG21M8Ps249vHW9YO+pfv+t8b+YdVs63yyUv11mtHsNhAeXLvynlQ3j4jh720Dmep7WUfBSeEeB+OWps5Pz3rk0HB4cB3+h9Vh0HWWX0/DqGZt4/JqeiFQzGJqGcdn/l6P9mG1rT0+MyuybXmhIfJZcBsPSk9oqepqmJ7HxA7npfvn+YKvM/rFscwLrD6TUnVzE0jbguoRhGNfeSgZyc03buvVJL/l20l0+2gaqaGMnIVKPY9pbfuhttA6vRIH07SJhj3jcnw3GVYVy/X5Lvcb/Fhs7jitWGz/vdCBXUEJ5G5tVcpk0DNnAxvbGJC1NGE/Sacc0uXX9l3OVRHpPiwbk8AJAjteuabnkAP7Tk6Pge7efO/9vdEC2rGXVIKm9vHeOgv+jt2FnXa6v88nAev88977JHQV3juz/zPsqOq0nDfOBDV6TW+E+kHu7jheYPkue/PpDDc2Pn3um0HEurrjaG34yjEfz6cmm9DDvlXnWWy80pIXecDvTUL4RV8Y8n+sJlT5jmXhCpyuU0e3TXjuXZ7vMW6+A9mD6xiTePaVtwOXztvd6xnluvN7abmZr4fHL87eStu66jUXbCnuJz13cSzuO6Xegb2NgpN0xpncHeBWF8vCuqoRXYa+fGuwmtYe2Tet8IFdQQnnbmlV8eTR4TY70qlX+98kTxuNd2zQl763rWnZ5HvjfFd2HvK9dO7GdXz88Cv5Mgt4fakBcdlFAg+DBpeGmhkEN4lLSl3SgsqJl7dNyeUfXj/ZdfkA/ZIPgZXmF4F9Kj/eO9nov6zXX+tB60frRemrbHQnS67eZ1COj+ysXbp7XE7WyPQTT2wIvjrU3PK4N6YmJ9haU6cEOby9OuPVzuk/lw7+uR59/Pzyc7AnSs3H7FH4ut6qfOpV8op24PBNbIfDWzVfl4mnyRSxtC9omyo6NoHeR6HO7egGpFTtPIWoRmI24fi1xY47aWLQNvUiqF0PT2pq2ff0OJJatgxMzXgiR36bJ99SqzO9TxBP9HiZdANHBJMO72Tr014tArt6E8va3OsJ4++vIVQmnt66bP8q6Pvkx+0jRW9fDYJjj2fWFMln7SQ2Is15zKz3nd//TIGht8HUNgwTxBTlvNrp+zlvXp+uROv+g9Hg/r73eB0fBX5101/+v9aH1IvafXNxy859Mb133h2kl0RM1PRnR2xnzBo3picczo+lAOck9fXpxwHiDzbInIbduvnpVLn5+P2m/wvAfeC/pSLp5RzDWwY0ef0ouLsjz7zrwT9J2XO1T0jaYVp+AXsRKeiwiLIm0CW0b2kbyDoSlbTHsqZS7U5J6zvSOi/r2mi3VKbD+gJ96/DrZxvIek3Vf9Lis4VKPf3qRNLGtyfx6PA3bfk//Ml0IkX1Xq/CC2zSYb+Tl0Avb+jua9nuovxvaDvKuv+n515ougMvth8+Ubg2Hd469sfRM5LoyqvOHy8nyuh6X5Tq5Ln32Unp95A4OOdHM+Sc/MpelV8k7ff2NrZyLNj47YbzxKqi9AOtr5lNHx94fZR4Je3rr+m7Yw57zTy8AyHPdv8it5DnhSs6ux0r5bv9ycBTcXMULFnr7oQSAKxoA0ij1ar68E1duy73453LCILfSWRlLY7A/v5wNJhtyCndWpg/lxCPT71jYU2/8oavbIeVWv2E4EFZaD6OEJ6n3l+UkaccabyxX+PfkYe/xwj7ZyVl5JZzsk7cpgxudmZ8e92+9BfUHvOYsjqdzn+vFIjmplmASpA6yJu3qgrSVC9K29B3Tu54v3xczWPxtkEGdAslIxnpDOf6nti3tOTO+P5LQn3xnRud0KbAKaBuTwJzp+KVtTI7Jr4XHZGvGsW1MVyztTI6HG9aEx+XEC4knayIM43I8LXuhtO21e+vNV7fkItqGmiaWVS+4eRLM35/IgG8X5cKvuBsrg/It+W7LiuRidvjboe7y/zO56+9GF717Fci1ERDKE78KjUwkjDfC3vhGHxyN9+WZ69+RQ+pLWQszu3X972ad/+R8D6+Z5+Sd1zr6dmMDfhUpd9eX0Qso8h0/t7qh/MZITiykmZvE59nu1nMYYu3z+m85GYypfjmtyfont3TLkGebrsK4bjbPSW24H+Fzgt6zEoye9SaTF5YXPfs+6QWGMIy/uSsXLvjrk8D0Itbm0PMmu2l3SNxtW5532Qu8y9aL+75oG0z/0zCuwaFIr2j62pmjLQJ5j1/aDvWCaVobC/cvS0ObQaxKGI/qXe8CmL7yLSWUzxaYXvCVzlMxTfpuh+gZ3cX8ilzE7eTvRm9uWT95IOD29bYcFj2PMN6eumiiJGdeGe/IAfK7WbetYbrorevT773/MdleoVuos5aR+RYFNJT76/45eU7uvcWp/f8kfB2X9FCn3o7rmkJuvT11anDWZRiPiqgntdqzoyHGdbET16cXGMSSMJ6o1OmJ2l613epztXXtSBTG69oe22lWoLHj12y3dSwO+V0428We2qI1p/t6680b9f9m3DX3rnT51Zi9DORaN4Tyol8pd8sRxt1ZdnlN62v+r8iP099k3ocSo65HoVwe2vr9zNtzOaPx7rhcXZfWdS+Umx81Um5j/rqR7c42GoWMOp5P1R5k43ufe/vmq6WfGU8ym55gvbo18Aaf1m0mzetkWoUXGJyUj5U4E4hO3tNGXy+7wfC7Ir1m2jNedl0s3y2B6Pilx8pajl/KIxcU/cHgaR2Lo1ta7kqr37XafjNm5nLL+0e7HMZ1N3obyMM6kucb5TbWoYSBxAFqljXD6TPlVsU1QskAABA8SURBVJ8pf2TZdFefhe/z9f0rRdYnvYn6TPmoyLJVL0MYr1q4O+vXW9etNXLreva/UqOuy/f+zPXXPyOHt89l36KDOeUigNxm+4yDNXV2FRrKH143PyfH3G/WtRPaK2+ML4HR+5O6thm3HT0B1JCsJ2RV9ZZrz4sMWLNx6zs3duLK4fpz7a3WbVbVW663dqpZ1RcYXLuwvvICOvL0qQcGH67kQpZc4JF2K3eQyB0s/K2sgB4rqzx+KawGfr249PbNGxu8otHz7v5mpLy1o0yjPGlexV1iZcpWZNnePUM+j8Az5fMi1f+bMF69cde2oLeuy6Brn8w66Fp067oO1lZ0X3Wb8tqy3aPj4Guyvo8VXU/qcsb7ibyT+7nT18e7+gqv1Pl7PoMec2UXf0lfF2e94BV59quy94br4xB6B4Ze9JH2VbituK6S2QnZho4SPTHBloxMU24AKe11kUvM8s7XkYT+fdflzbK+2a2XWzJg0vbRYXBV6nUrbXThtPXqLcu+N9ip85k/GR3+ndhbpY1ZHDQsbScKThe7/bhy6LSCq41drO7txRZkyYRZm94MXw9opW3J4H+l2pYEcd/3d+KCUSNtQNqWkR+iZX9anmWfl/0srn2VXW+e5dvS7qo4fqmDXkyU/9mRHvFRHpfC8zbQjoqWdWaur+LcOT4MtmQwN/ktTH6zRpZtRebrp/zd2TayLNb6eeT7uhp/2tMtAz7lHn1ddbSHPexpr3D0dd2OvnO3yOjr0zJ61/KMvh4+pyu3Bmep/TOvvJG5nRDGs4g2P48GR33dVKaSyCvFygTjaBv6HTw4Dv4iT0Dzjf/07H3XmYoaN1P4rmsv+ILLYK49s9b4Xzy95u1Ex4Y8ri72TV8PFrfPJz+XH7DX5fgwzDKvy3mmde5dNTb4LSmos/e3y5XxH8mB+df1IkhUXgnk8rqjbG/XyHNMc+Ghr8mRUcuHMvDbUEeLzXJSEp5M68mX7+/GBQsXZSuzDr3gEJhA9seelfq9kLqucAA62SfP7srz6eOmLi6klpMZGhXQdxVP3vdk9PRAXpMmbStltH/tKdNR/o2x4/X1gZ6k7ze6A2y8EwK5j1+yV2EYtHLhTtsax7Dc9awX3Yx8r+W3eiia8ruR4c0IK2KeOWjlVm/hAoTye5VSRSAnjLew0ccUSXqONw6Pva2Yyfd9LM+1jF2EYl1pGFg9b5hluzqP/Pjt62MdWedPm2+6fftr0lMhPTDFAqKU6cfW83/vZBCPtpvH9dSaN9Ke3bQyJ03POgCea8ekMi2bFh57J9LrZe1nJLwVf6+4Md+SC6RfXdYmwgua8lqaZduf/8zFBab5deb9d3hi4nsLj0StrXl7Xb3qrxcejo8X60B7APtwS2HeOmZ+dwJxbavL3xd3OqzJhYBeCJLj19ll66KdLVNx81ncWw/EfH+VLq6tVCDXpkMon36BXAdywribAxNrqU8gujggvXW/KFv9mdjeVWP+VA6U/0ueg//WYN0bF3lPen171f4tTY/B8s5geXewhPN/LA/fPSL/+7MLJQ8fBTB/LP+Npfdr7+GBt1v1XUoLZeADBBBAAAEEEECgYoGVC+TqSSj3PJeBnDBe8beU1SOAAAIIIIAAAggggEAvBXo9ynpcjTH6epxM/s8J4/nNWAIBBBBAAAEEEEAAAQQQUIGVDOS644Ty8l8Awnh5Q9aAAAIIIIAAAggggAACqyuwsoFcq5xQXrzhE8aL27EkAggggAACCCCAAAIIIKACKx3IFYBQnv+LQBjPb8YSCCCAAAIIIIAAAggggMC8wMoHcgUhlM83i/h/E8bjbZiCAAIIIIAAAggggAACCOQRIJDPtAjl6c2GMJ5uxBwIIIAAAggggAACCCCAQFYBAvkJKUJ5fLMhjMfbMAUBBBBAAAEEEEAAAQQQKCKwku8hT4NahfeUW8/f92zwQpqFTh+s+x+dHNmxvMH9TJb5T85jjHft9PU3tvIul3f+g0vnR9Z6l/Mup/Mb379y+ivjUZFlWQYBBBBAAAEEEEAAAQQQKCpAII+R63solxh6O3vAzjPvPVDCeEzj4mMEEEAAAQQQQAABBBBAQAQI5AnNoP+hPGHnS04ijJcEZHEEEEAAAQQQQAABBBDovQCBPKWKCeUpQEsmE8aXoPARAggggAACCCCAAAIIIDAnQCDP0CQI5RmQZrMQxrNbMScCCCCAAAIIIIAAAgistgCBPGP9E8rToQjj6UbMgQACCCCAAAIIIIAAAghEAgTyHG2BUB6PRRiPt2EKAggggAACCCCAAAIIILBMgEC+TCXhM0L5Ig5hfNGETxBAAAEEEEAAAQQQQACBNAECeZrQkumE8nsohPElDYSPEEAAAQQQQAABBBBAAIEMAgTyDEjLZiGUyzvzjHft9PU3tpb5uPzs4NL5kbXe5SLrNL5/5fRXxqMiy7IMAggggAACCCCAAAIIIFClAIG8hO4qh3LCeImGw6IIIIAAAggggAACCCCAgAgQyEs2g1UM5YTxko2GxRFAAAEEEEAAAQQQQAABESCQO2gGqxTKCeMOGgyrQAABBBBAAAEEEEAAAQREgEDuqBmsQignjDtqLKwGAQQQQAABBBBAAAEEEBABArnDZtDnUE4Yd9hQWBUCCCCAAAIIIIAAAgggIAIEcsfNoI+hnDDuuJGwOgQQQAABBBBAAAEEEEBABAjkFTSDPoVywngFDYRVIoAAAggggAACCCCAAAIiQCCvqBn0IZQTxitqHKwWAQQQQAABBBBAAAEEEBABAnmFzaDLoZwwXmHDYNUIIIAAAggggAACCCCAgAgQyCtuBl0M5YTxihsFq0cAAQQQQAABBBBAAAEERIBAXkMz6FIoJ4zX0CDYBAIIIIAAAggggAACCCAgAgTymppBF0L5u1vDsw+NxntVkxxcOj+y1rtcZDvG96+c/sp4VGRZlkEAAQQQQAABBBBAAAEE2iRAIK+xNroQyqvmIIxXLcz6EUAAAQQQQAABBBBAoCsCBPKaa2qVQzlhvObGxuYQQAABBBBAAAEEEECg1QIE8gaqZxVDOWG8gYbGJhFAAAEEEEAAAQQQQKDVAgTyhqpnlUI5YbyhRsZmEUAAAQQQQAABBBBAoNUCBPIGq2cVQjlhvMEGxqYRQAABBBBAAAEEEECg1QIE8oarp8+hnDDecONi8wgggAACCCCAAAIIINBqAQJ5C6qnj6GcMN6ChkUREEAAAQQQQAABBBBAoNUCBPKWVE+fQjlhvCWNimIggAACCCCAAAIIIIBAqwUI5C2qnj6EcsJ4ixoURUEAAQQQQAABBBBAAIFWCxDIW1Y9XQ7lhPGWNSaKgwACCCCAAAIIIIAAAq0WIJC3sHq6GMoJ4y1sSBQJAQQQQAABBBBAAAEEWi1AIG9p9XQplBPGW9qIKBYCCCCAAAIIIIAAAgi0WoBA3uLq6UIoJ4y3uAFRNAQQQAABBBBAAAEEEGi1AIG81dXjeW0O5YTxljceiocAAggggAACCCCAAAKtFiCQt7p6poVrYygnjHeg4VBEBBBAAAEEEEAAAQQQaLUAgbzV1XOvcG0K5YTxjjQaiokAAggggAACCCCAAAKtFiCQt7p67i9cG0I5YbxDDYaiIoAAAggggAACCCCAQKsFCOStrp7FwjUZygnji/XBJwgggAACCCCAAAIIIIBAUQECeVG5BpdrIpQTxhuscDaNAAIIIIAAAggggAACvRQgkHe0WusM5YTxjjYSio0AAggggAACCCCAAAKtFiCQt7p6kgtXRygnjCfXAVMRQAABBBBAAAEEEEAAgaICBPKici1ZrspQThhvSSVTDAQQQAABBBBAAAEEEOilAIG8B9VaRSgnjPegYbALCCCAAAIIIIAAAggg0GoBAnmrqyd74VyGcsJ4dnfmRAABBBBAAAEEEEAAAQSKChDIi8q1cDkXofzOcbBjrXe5yO4Z379y+ivjUZFlWQYBBBBAAAEEEEAAAQQQWDUBAnnParxMKPc8c9vz7JkiJITxImosgwACCCCAAAIIIIAAAqssQCDvYe2XC+X5QQjj+c1YAgEEEEAAAQQQQAABBBAgkPe0DdQVygnjPW1A7BYCCCCAAAIIIIAAAghULkAgr5y4uQ1UHcoJ483VLVtGAAEEEEAAAQQQQACB7gsQyLtfh4l7UFUoJ4wnsjMRAQQQQAABBBBAAAEEEEgVIJCnEnV/BtehnDDe/TbBHiCAAAIIIIAAAggggEDzAgTy5uuglhK4CuWE8Vqqi40ggAACCCCAAAIIIIDACggQyFegkqNdLBvKCeMr1FjYVQQQQAABBBBAAAEEEKhcgEBeOXG7NlA0lBPG21WPlAYBBBBAAAEEEEAAAQS6L0Ag734d5t6DvKGcMJ6bmAUQQAABBBBAAAEEEEAAgVQBAnkqUT9nyBrKCeP9rH/2CgEEEEAAAQQQQAABBJoXIJA3XweNlSAtlBPGG6saNowAAggggAACCCCAAAIrIEAgX4FKTtrFuFBOGE9SYxoCCCCAAAIIIIAAAgggUF6AQF7esPNrmA/lhPHOVyk7gAACCCCAAAIIIIAAAh0QIJB3oJLqKGIUyj1jdk5/ZTyqY5tsAwEEEEAAAQQQQAABBBBAAAEEEEAAAQQQQAABBBBAAAEEEEAAAQQQQAABBBBAAAEEEEAAAQQQQAABBBBAAAEEEEAAAQQQQAABBBBAAAEEEEAAAQQQQAABBBBAAAEEEEAAAQQQQAABBBBAAAEEEEAAAQQQQAABBBBAAAEEEEAAAQQQQAABBBBAAAEEEEAAAQQQQAABBBBAAAEEEEAAAQQQQAABBBBAAAEEEEAAAQQQQAABBBBAAAEEEEAAAQQQQAABBBBAAAEEEEAAAQQQQAABBBBAAAEEEEAAAQQQQAABBBBAAAEEEEAAAQQQQAABBBBAAAEEEEAAAQQQQAABBBBAAAEEEEAAAQQQQAABBBBAAAEEEEAAAQQQQAABBBBAAAEEEEAAAQQQQAABBBBAAAEEEEAAAQQQQAABBBBAAAEEEEAAAQQQQAABBBBAAAEEEEAAAQQQQAABBBBAAAEEEEAAAQQQQAABBBBAAAEEEEAAAQQQQAABBBBAAAEEEEAAAQQQQAABBBBAAAEEEEAAAQQQQAABBBBAAAEEEEAAAQQQQAABBBBAAAEEEEAAAQQQQAABBBBAAAEEEEAAAQQQQAABBBBAAAEEEEAAAQQQQAABBBBAAAEEEEAAAQQQQAABBBBAAAEEEEAAAQQQQAABBBBAAAEEEEAAAQQQQAABBBBAAAEEEEAAAQQQQAABBBBAAAEEEEAAAQQQQAABBBBAAAEEEEAAAQQQQAABBBBAAAEEEEAAAQQQQAABBBBAAAEEEEAAAQQQQAABBBBAAAEEEEAAAQQQQAABBBBAAAEEEEAAAQQQQAABBBBAAAEEEEAAAQQQQAABBBBAAAEEEEAAAQQQQAABBBBAAAEEEEAAAQQQQAABBBBAAAEEEEAAAQQQQAABBBBAAAEEEEAAAQQQQAABBBBAAAEEEEAAAQQQQAABBBBAAAEEEEBgKvD/AW/Gi1rciI8AAAAAAElFTkSuQmCC;" parent="20H57iQiFcqCnkmzl_gZ-31" vertex="1">
          <mxGeometry x="7.009999999999991" y="11.019999999999982" width="95.99" height="27.95" as="geometry" />
        </mxCell>
        <mxCell id="20H57iQiFcqCnkmzl_gZ-34" value="implements" style="edgeStyle=orthogonalEdgeStyle;rounded=0;orthogonalLoop=1;jettySize=auto;html=1;entryX=1;entryY=0.25;entryDx=0;entryDy=0;startArrow=none;startFill=0;endArrow=block;endFill=0;" parent="20H57iQiFcqCnkmzl_gZ-1" target="20H57iQiFcqCnkmzl_gZ-12" edge="1">
          <mxGeometry relative="1" as="geometry">
            <mxPoint x="777" y="508" as="sourcePoint" />
            <Array as="points">
              <mxPoint x="777" y="401" />
              <mxPoint x="591" y="401" />
            </Array>
          </mxGeometry>
        </mxCell>
        <mxCell id="20H57iQiFcqCnkmzl_gZ-35" value="" style="group" parent="20H57iQiFcqCnkmzl_gZ-1" vertex="1" connectable="0">
          <mxGeometry x="887" y="508" width="110" height="50" as="geometry" />
        </mxCell>
        <mxCell id="20H57iQiFcqCnkmzl_gZ-36" value="" style="html=1;fillColor=#dae8fc;strokeColor=#6c8ebf;" parent="20H57iQiFcqCnkmzl_gZ-35" vertex="1">
          <mxGeometry width="110" height="50" as="geometry" />
        </mxCell>
        <mxCell id="20H57iQiFcqCnkmzl_gZ-37" value="" style="shape=image;verticalLabelPosition=bottom;labelBackgroundColor=#ffffff;verticalAlign=top;aspect=fixed;imageAspect=0;image=https://d2908q01vomqb2.cloudfront.net/ca3512f4dfa95a03169c5a670a4c91a19b3077b4/2019/04/17/firecracker-logo800x400.jpg;" parent="20H57iQiFcqCnkmzl_gZ-35" vertex="1">
          <mxGeometry x="15" y="5" width="80" height="40" as="geometry" />
        </mxCell>
        <mxCell id="20H57iQiFcqCnkmzl_gZ-38" value="can use" style="edgeStyle=orthogonalEdgeStyle;rounded=0;orthogonalLoop=1;jettySize=auto;html=1;entryX=0.5;entryY=0;entryDx=0;entryDy=0;startArrow=none;startFill=0;endArrow=classic;endFill=1;" parent="20H57iQiFcqCnkmzl_gZ-1" source="20H57iQiFcqCnkmzl_gZ-8" target="20H57iQiFcqCnkmzl_gZ-37" edge="1">
          <mxGeometry relative="1" as="geometry" />
        </mxCell>
        <mxCell id="20H57iQiFcqCnkmzl_gZ-39" value="can use" style="edgeStyle=orthogonalEdgeStyle;rounded=0;orthogonalLoop=1;jettySize=auto;html=1;startArrow=none;startFill=0;endArrow=classic;endFill=1;" parent="20H57iQiFcqCnkmzl_gZ-1" source="20H57iQiFcqCnkmzl_gZ-5" edge="1">
          <mxGeometry relative="1" as="geometry">
            <mxPoint x="272" y="508" as="targetPoint" />
          </mxGeometry>
        </mxCell>
        <mxCell id="20H57iQiFcqCnkmzl_gZ-40" value="can use" style="edgeStyle=orthogonalEdgeStyle;rounded=0;orthogonalLoop=1;jettySize=auto;html=1;entryX=0.5;entryY=0;entryDx=0;entryDy=0;startArrow=none;startFill=0;endArrow=classic;endFill=1;" parent="20H57iQiFcqCnkmzl_gZ-1" source="20H57iQiFcqCnkmzl_gZ-8" target="20H57iQiFcqCnkmzl_gZ-24" edge="1">
          <mxGeometry relative="1" as="geometry" />
        </mxCell>
        <mxCell id="019YY2uBMDD3XiN5e6ri-1" value="&#xa;&#xa;Nabla " style="group" vertex="1" connectable="0" parent="20H57iQiFcqCnkmzl_gZ-1">
          <mxGeometry x="615" y="509" width="110" height="50" as="geometry" />
        </mxCell>
        <mxCell id="019YY2uBMDD3XiN5e6ri-2" value="" style="html=1;fillColor=#dae8fc;strokeColor=#6c8ebf;" vertex="1" parent="019YY2uBMDD3XiN5e6ri-1">
          <mxGeometry x="3" width="80" height="50" as="geometry" />
        </mxCell>
        <mxCell id="019YY2uBMDD3XiN5e6ri-7" value="Nabla" style="shape=image;verticalLabelPosition=bottom;labelBackgroundColor=#ffffff;verticalAlign=top;aspect=fixed;imageAspect=0;image=https://nabla-containers.github.io/public/img/nabla.png;" vertex="1" parent="019YY2uBMDD3XiN5e6ri-1">
          <mxGeometry x="33" width="20" height="20" as="geometry" />
        </mxCell>
        <mxCell id="019YY2uBMDD3XiN5e6ri-8" style="edgeStyle=orthogonalEdgeStyle;rounded=0;orthogonalLoop=1;jettySize=auto;html=1;startArrow=none;startFill=0;endArrow=block;endFill=0;exitX=0.5;exitY=0;exitDx=0;exitDy=0;" edge="1" parent="20H57iQiFcqCnkmzl_gZ-1" source="019YY2uBMDD3XiN5e6ri-2">
          <mxGeometry relative="1" as="geometry">
            <mxPoint x="510.99" y="544.8" as="sourcePoint" />
            <mxPoint x="429" y="440" as="targetPoint" />
            <Array as="points">
              <mxPoint x="662" y="490" />
              <mxPoint x="429" y="490" />
            </Array>
          </mxGeometry>
        </mxCell>
        <mxCell id="019YY2uBMDD3XiN5e6ri-9" value="Implements" style="edgeLabel;html=1;align=center;verticalAlign=middle;resizable=0;points=[];" vertex="1" connectable="0" parent="019YY2uBMDD3XiN5e6ri-8">
          <mxGeometry x="-0.2899" y="-1" relative="1" as="geometry">
            <mxPoint x="-83" as="offset" />
          </mxGeometry>
        </mxCell>
        <mxCell id="DJx04l0dwqoYzwTYYsc3-0" value="Image Run" style="shape=umlFrame;whiteSpace=wrap;html=1;width=130;height=20;" vertex="1" parent="20H57iQiFcqCnkmzl_gZ-1">
          <mxGeometry x="40" y="230" width="1000" height="420" as="geometry" />
        </mxCell>
      </root>
    </mxGraphModel>
  </diagram>
  <diagram id="UufenMVJMs_hGxwSahav" name="Image Orchestration">
    <mxGraphModel dx="888" dy="372" grid="1" gridSize="10" guides="1" tooltips="1" connect="1" arrows="1" fold="1" page="1" pageScale="1" pageWidth="850" pageHeight="1100" math="0" shadow="0">
      <root>
        <mxCell id="OD-93DbbbRdIlcmkwXBB-0" />
        <mxCell id="OD-93DbbbRdIlcmkwXBB-1" parent="OD-93DbbbRdIlcmkwXBB-0" />
        <mxCell id="OD-93DbbbRdIlcmkwXBB-2" value="Image Orchestration" style="shape=umlFrame;whiteSpace=wrap;html=1;width=130;height=20;" parent="OD-93DbbbRdIlcmkwXBB-1" vertex="1">
          <mxGeometry x="10" y="861" width="370" height="380" as="geometry" />
        </mxCell>
        <mxCell id="OD-93DbbbRdIlcmkwXBB-3" value="&lt;p style=&quot;margin: 4px 0px 0px 10px&quot; align=&quot;left&quot;&gt;K8s&lt;br&gt;&lt;/p&gt;" style="html=1;strokeWidth=1;shape=mxgraph.sysml.package;html=1;overflow=fill;whiteSpace=wrap;fillColor=#d5e8d4;strokeColor=#82b366;" parent="OD-93DbbbRdIlcmkwXBB-1" vertex="1">
          <mxGeometry x="80" y="920" width="220" height="208.5" as="geometry" />
        </mxCell>
        <mxCell id="OD-93DbbbRdIlcmkwXBB-4" value="" style="group" parent="OD-93DbbbRdIlcmkwXBB-1" vertex="1" connectable="0">
          <mxGeometry x="60.000000000000114" y="1060" width="273.07999999999987" height="160" as="geometry" />
        </mxCell>
        <mxCell id="OD-93DbbbRdIlcmkwXBB-5" value="&lt;div&gt;&amp;lt;&amp;lt;Common Runtime&lt;/div&gt;&lt;div&gt;Interface&amp;gt;&amp;gt;&lt;br&gt;&lt;/div&gt;" style="html=1;fillColor=#ffe6cc;strokeColor=#d79b00;" parent="OD-93DbbbRdIlcmkwXBB-4" vertex="1">
          <mxGeometry x="65.99999999999989" width="140" height="50" as="geometry" />
        </mxCell>
        <mxCell id="OD-93DbbbRdIlcmkwXBB-6" value="" style="group" parent="OD-93DbbbRdIlcmkwXBB-4" vertex="1" connectable="0">
          <mxGeometry y="110" width="136.51" height="50" as="geometry" />
        </mxCell>
        <mxCell id="OD-93DbbbRdIlcmkwXBB-7" value="" style="html=1;fillColor=#dae8fc;strokeColor=#6c8ebf;" parent="OD-93DbbbRdIlcmkwXBB-6" vertex="1">
          <mxGeometry width="136.51" height="50" as="geometry" />
        </mxCell>
        <mxCell id="OD-93DbbbRdIlcmkwXBB-8" value="" style="shape=image;verticalLabelPosition=bottom;labelBackgroundColor=#ffffff;verticalAlign=top;aspect=fixed;imageAspect=0;image=data:image/png,iVBORw0KGgoAAAANSUhEUgAAAYUAAAB1CAMAAACWGA3XAAAAZlBMVEX///9XV1cAAACvr6/a2tqysrKHh4fg4OCUlJS1tbUzMzObm5vGxsb4+Pirq6t1dXU4ODhoaGh+fn7n5+fNzc15eXnx8fHU1NRlZWVgYGC7u7s9PT0RERHJycnl5eX19fWNjY0cHBxKdKiOAAAC5klEQVR4nO3dbXeaMBiAYa1WcKjUl2p1W93+/5+cEQIJDUma0vrM3tcnDwQSuec5xXY6GgEAAAAAAAAAgO9gP023vPXi70b+kC679eLvBhUkoIIEVJCAChJQQQIqSEAFCaggARUkoIIEVJCAChJQQQIqSEAFCaggARUkoIIEVJCAChJQQQIqSBBX4ee49YsKg4urMDeO+CG+wqLyO+HQrD72dfBFed1hhWX9ol0nHLuqj52Hhw6JChYqDIUKElBBAipIQAUJqCDBRyrsisph8FV5UUECKkhABQmoIEFb4ansNzWOoMLw2gqbyCPiK5wnYbvLuCxi3PYybuEdoWa8PtA/bR7rHSdjSVvPCdTPRdP6sfpnt/NOt7+MOIVWfQpehd2nV9iOw4rLuHnEOLXamXeE+t/Xzh2lsaSD5wSrkX2/UHinU0++9I4YVy9H/1XIqWCjQhAVqOBABScqUMGNCg0qVGt57HcwKswc+5/rfWaFwhpxrLeqCtcNk3rDsR5g3S84pvgTqJBbo9eOCqvuKfUS1sGr4LtfmAxy76znLwPjdIWVY1/uqGDPqy9L82lN7713PgUqLKzRG0eFffeUZ0eFZ88S3BXWD7a095GoQAUqVL5vBXMJVIjCa+HqCyrsi34bY/q0Cvmbc1LBVSEbh6VX6EUFKlSoQAUqVKhABSpUqEAFZ4Vy8VZhTJ9W4eQ469VuRAVjkK7gevv+E+6dTVRoUIEKVKj8lxUOnd/LbY19VPiqCj7vr3Cc9VNPV1coHfv1NU6ooKdVf2CgK7w4pmh+ezxKreB8ZnnnKty6gk/K32BEVtDUS/EG9wsvnatABSr4UUGhQoMKQVSwUaFZBBUaVPBbRnwLpbofjPkWy/Nl3Kvzmyuzemu7pXNolrAUdR+2NR63zEVkjrNY05pXwXe12gp/n+LwuXnD4zMkJaCCBFSQgAoSUEECKkhABQmoIAEVJIh596DPMnx6AAAAAAAAAAAE+wesTIV1yK4ATQAAAABJRU5ErkJggg==;" parent="OD-93DbbbRdIlcmkwXBB-6" vertex="1">
          <mxGeometry x="15.889999999999873" y="9.25" width="104.73" height="31.5" as="geometry" />
        </mxCell>
        <mxCell id="OD-93DbbbRdIlcmkwXBB-9" value="CRI-O" style="html=1;fillColor=#dae8fc;strokeColor=#6c8ebf;" parent="OD-93DbbbRdIlcmkwXBB-4" vertex="1">
          <mxGeometry x="163.07999999999987" y="110" width="110" height="50" as="geometry" />
        </mxCell>
        <mxCell id="OD-93DbbbRdIlcmkwXBB-10" value="implements" style="edgeStyle=orthogonalEdgeStyle;rounded=0;orthogonalLoop=1;jettySize=auto;html=1;exitX=0.5;exitY=0;exitDx=0;exitDy=0;startArrow=none;startFill=0;endArrow=block;endFill=0;entryX=0.25;entryY=1;entryDx=0;entryDy=0;" parent="OD-93DbbbRdIlcmkwXBB-4" source="OD-93DbbbRdIlcmkwXBB-7" target="OD-93DbbbRdIlcmkwXBB-5" edge="1">
          <mxGeometry relative="1" as="geometry" />
        </mxCell>
        <mxCell id="OD-93DbbbRdIlcmkwXBB-11" value="implements" style="edgeStyle=orthogonalEdgeStyle;rounded=0;orthogonalLoop=1;jettySize=auto;html=1;entryX=0.75;entryY=1;entryDx=0;entryDy=0;startArrow=none;startFill=0;endArrow=block;endFill=0;" parent="OD-93DbbbRdIlcmkwXBB-4" source="OD-93DbbbRdIlcmkwXBB-9" target="OD-93DbbbRdIlcmkwXBB-5" edge="1">
          <mxGeometry relative="1" as="geometry" />
        </mxCell>
        <mxCell id="OD-93DbbbRdIlcmkwXBB-12" value="use" style="edgeStyle=orthogonalEdgeStyle;rounded=0;orthogonalLoop=1;jettySize=auto;html=1;startArrow=none;startFill=0;endArrow=classic;endFill=1;" parent="OD-93DbbbRdIlcmkwXBB-1" source="OD-93DbbbRdIlcmkwXBB-13" target="OD-93DbbbRdIlcmkwXBB-5" edge="1">
          <mxGeometry relative="1" as="geometry" />
        </mxCell>
        <mxCell id="OD-93DbbbRdIlcmkwXBB-13" value="Kubelet" style="html=1;fillColor=#dae8fc;strokeColor=#6c8ebf;" parent="OD-93DbbbRdIlcmkwXBB-1" vertex="1">
          <mxGeometry x="135" y="945" width="110" height="51" as="geometry" />
        </mxCell>
      </root>
    </mxGraphModel>
  </diagram>
</mxfile>
